<svg version="1.1" id="Layer_1" xmlns="http://www.w3.org/2000/svg" xmlns:xlink="http://www.w3.org/1999/xlink" x="0px" y="0px"
	 width="100%" viewBox="0 0 500 500" enable-background="new 0 0 500 500" xml:space="preserve">
<path fill="#000000" opacity="1.000000" stroke="none" 
	d="
M501.000000,244.000000 
	C501.000000,329.999969 501.000000,415.499969 501.000000,500.999939 
	C334.333405,500.999969 167.666794,500.999969 1.000135,501.000000 
	C1.000090,334.333435 1.000090,167.666870 1.000045,1.000225 
	C167.666519,1.000150 334.333038,1.000150 500.999786,1.000075 
	C501.000000,81.833336 501.000000,162.666672 501.000000,244.000000 
M336.781708,88.223183 
	C336.781708,88.223183 336.401855,88.161842 336.686584,87.465996 
	C336.102386,85.997948 335.518188,84.529907 334.833557,82.405739 
	C334.778564,81.967270 334.723602,81.528793 334.843231,80.492821 
	C334.486267,80.308441 334.129272,80.124062 333.728180,79.911339 
	C333.728180,79.911339 333.678467,79.928078 333.758545,79.291100 
	C333.716797,78.866539 333.675049,78.441971 333.789703,77.403313 
	C332.602631,75.000114 331.415558,72.596909 329.860291,69.510658 
	C327.566223,67.285149 325.272156,65.059647 322.745087,62.204857 
	C318.179749,59.757385 313.614380,57.309914 308.531647,54.344147 
	C305.907257,53.576862 303.327759,52.543522 300.650146,52.091450 
	C292.117126,50.650768 283.547577,49.426212 274.243866,47.952217 
	C272.045929,47.643562 269.501678,45.202923 267.322205,49.063404 
	C266.892548,49.014431 266.462921,48.965454 265.442017,48.392284 
	C256.592072,47.941055 247.744736,47.404961 238.889297,47.132389 
	C237.598450,47.092659 236.268906,48.311043 234.322083,49.084980 
	C233.891190,49.060799 233.460297,49.036617 232.595139,48.468548 
	C228.064743,48.943523 223.534363,49.418499 218.121170,49.827370 
	C215.044846,50.226299 211.922058,50.410286 208.900604,51.063103 
	C198.437790,53.323696 187.510239,54.381577 178.342789,62.237671 
	C173.303391,65.058395 170.923798,69.784782 168.942932,75.576027 
	C167.921265,78.606979 166.679810,81.584389 165.925537,84.680489 
	C164.529953,90.409035 163.419571,96.207054 161.825104,102.705498 
	C161.271484,105.739807 160.717880,108.774109 160.005035,112.777122 
	C160.060211,123.843384 160.115387,134.909637 160.036865,146.904099 
	C160.391907,158.536224 160.746948,170.168365 160.675201,182.392334 
	C155.055435,185.437317 147.801910,185.840240 143.523117,193.021439 
	C149.683441,191.876389 154.921539,190.902740 160.875427,190.422882 
	C160.919327,192.244644 160.998444,194.066360 161.001846,195.888199 
	C161.056137,224.916855 161.100723,253.945511 161.002060,283.893494 
	C161.384537,288.608704 161.767029,293.323883 162.023361,298.963867 
	C162.072754,311.250793 162.122131,323.537689 161.999374,336.783813 
	C162.055664,345.253693 162.111954,353.723602 162.025223,363.084564 
	C162.035278,376.692505 162.045334,390.300415 161.856155,404.628052 
	C162.232559,405.430817 162.608963,406.233582 163.264511,407.541534 
	C163.290451,407.924652 163.316391,408.307800 163.027130,409.538879 
	C163.686996,413.174957 164.033218,416.907166 165.108429,420.415985 
	C165.931778,423.102844 167.675995,425.507507 169.233749,428.535583 
	C169.523712,428.753510 169.813675,428.971466 170.102875,429.542908 
	C170.102875,429.542908 170.209457,429.879944 170.165527,430.608856 
	C171.469528,435.938507 175.513077,438.688568 180.087723,441.698853 
	C180.833130,442.508545 181.426880,443.719025 182.346909,444.067139 
	C194.157547,448.535370 206.232758,451.877808 219.426895,452.590881 
	C226.196487,453.266907 232.977295,454.595154 239.733292,454.479156 
	C252.595978,454.258301 265.442932,453.181793 278.299377,452.517883 
	C291.162231,451.853516 303.899384,450.261505 315.865540,445.311554 
	C321.496277,442.982300 327.694916,440.749603 330.403656,433.579376 
	C331.154327,432.462158 331.904968,431.344910 333.069458,429.571411 
	C335.998962,422.895905 339.984467,416.503448 338.675415,407.996613 
	C338.844666,407.339447 339.013947,406.682281 339.796753,405.787628 
	C339.848083,405.163635 339.899445,404.539612 339.961639,402.991425 
	C339.918457,390.034363 339.875244,377.077332 339.998047,363.170258 
	C339.943481,354.383270 339.888916,345.596283 339.981598,335.906555 
	C340.016663,322.972748 340.051727,310.038910 340.818237,296.656342 
	C340.833862,293.771362 340.849457,290.886383 341.005066,287.073212 
	C341.000488,261.505554 340.974152,235.937881 341.005463,210.370270 
	C341.014191,203.238983 341.193390,196.107895 342.006317,189.167587 
	C346.807831,190.411789 351.609344,191.655991 357.020966,193.058289 
	C356.511627,188.415512 353.176086,188.202698 350.736572,186.981812 
	C347.067657,185.145630 342.189453,184.950943 340.985565,179.171463 
	C340.927917,178.747849 340.870270,178.324249 340.935303,177.006775 
	C341.302826,171.926834 341.942352,166.849289 341.986786,161.766525 
	C342.119171,146.624008 342.046600,131.479294 341.963165,116.335922 
	C341.954895,114.834496 341.322845,113.336502 340.997101,110.958786 
	C339.629791,103.457993 338.262482,95.957199 337.167206,88.686584 
	C337.076630,88.654640 336.986084,88.622688 336.781708,88.223183 
z"/>
<path fill="#EDDA28" opacity="1.000000" stroke="none" 
	d="
M333.678467,79.928085 
	C333.678467,79.928078 333.728180,79.911339 333.853516,80.155777 
	C334.137024,80.702095 334.366943,80.932121 334.668640,81.090317 
	C334.723602,81.528793 334.778564,81.967270 334.866333,83.103844 
	C335.400055,85.255249 335.900970,86.708542 336.401855,88.161835 
	C336.401855,88.161842 336.781708,88.223183 336.862366,88.373306 
	C336.943024,88.523438 336.895172,88.456406 336.895172,88.456406 
	C338.262482,95.957199 339.629791,103.457993 340.949219,111.877655 
	C340.677826,124.582542 340.307159,136.368179 340.276031,148.154709 
	C340.249847,158.069473 340.618713,167.985291 340.812653,177.900635 
	C340.870270,178.324249 340.927917,178.747849 340.578613,179.574097 
	C337.508270,178.573761 334.844910,177.170776 331.845581,175.590820 
	C330.555725,179.778534 329.163391,184.298996 327.764984,188.800598 
	C327.758911,188.781723 327.724243,188.804184 327.490265,189.042572 
	C327.072968,190.146515 326.889618,191.012054 326.760193,191.901764 
	C326.814056,191.925919 326.774780,191.814514 326.519775,192.064407 
	C322.812653,203.186523 319.360535,214.058746 315.768921,224.973755 
	C315.629395,225.016525 315.343781,225.076523 314.995483,225.269470 
	C314.493256,226.493210 314.339386,227.524002 314.248230,228.652405 
	C314.311005,228.750031 314.176300,228.939026 313.856964,229.157166 
	C313.235382,232.569458 312.933167,235.763641 312.671387,239.287415 
	C312.641846,240.051422 312.571899,240.485840 312.159485,241.090942 
	C311.553833,241.846252 311.064606,242.429520 311.061157,243.015656 
	C311.002563,253.013702 310.967621,263.012421 311.047791,273.009979 
	C311.056000,274.031860 311.833893,275.047577 312.305298,276.185455 
	C312.356018,276.304779 312.159393,276.473755 312.114624,276.905396 
	C312.973175,279.012177 313.993378,282.158112 314.758728,282.097290 
	C317.474884,281.881378 320.104156,280.571533 322.826080,279.678772 
	C322.885834,279.681519 322.776978,279.731171 323.043579,279.717346 
	C323.530701,279.438080 323.751160,279.172638 323.976562,278.945343 
	C323.981476,278.983459 323.915955,278.943298 324.233643,278.945312 
	C325.014160,278.575745 325.477020,278.204163 325.942688,277.877991 
	C325.945496,277.923431 325.865753,277.879456 326.192505,277.896820 
	C326.920502,277.492432 327.321716,277.070679 327.756348,276.703491 
	C327.789703,276.758087 327.665771,276.726227 327.979980,276.670898 
	C328.515411,276.053101 328.736603,275.490601 328.973938,274.961121 
	C328.990082,274.994080 328.922577,274.965179 329.283600,274.916443 
	C330.121368,273.600494 330.598145,272.333252 331.326843,270.773132 
	C332.377533,263.438751 333.692261,256.410065 333.866974,249.353104 
	C334.224670,234.904968 334.014862,220.441437 333.934113,205.984818 
	C333.915710,202.692596 333.338196,199.405441 333.272247,196.110855 
	C333.230560,194.030151 333.660461,191.940002 333.878845,189.854080 
	C335.889557,190.235062 337.900269,190.616043 339.933472,191.465302 
	C339.924347,205.627975 339.892700,219.322357 339.606262,233.336334 
	C339.236298,239.398087 338.979553,245.142014 339.052185,250.881760 
	C339.107483,255.250565 339.581177,259.614075 339.890289,264.449280 
	C339.893829,272.632538 339.875793,280.346466 339.602417,288.350769 
	C339.593628,291.462433 339.840210,294.283752 340.086792,297.105103 
	C340.051727,310.038910 340.016663,322.972748 339.592529,336.666290 
	C339.062042,342.492340 338.747711,347.561615 338.835510,352.623962 
	C338.902039,356.460693 339.481110,360.288483 339.832062,364.120270 
	C339.875244,377.077332 339.918457,390.034363 339.760986,403.624817 
	C339.434601,404.847198 339.308899,405.436157 339.183228,406.025116 
	C339.013947,406.682281 338.844666,407.339447 338.371094,408.544678 
	C336.412384,414.363800 334.757965,419.634857 332.807007,425.126953 
	C330.983643,425.928558 329.456879,426.509094 327.972229,427.083832 
	C328.014343,427.078033 327.936523,427.115509 327.797058,426.779175 
	C325.795685,426.362274 323.933777,426.281677 322.067993,426.143860 
	C322.064117,426.086639 322.140717,426.171997 321.822998,426.142883 
	C321.025360,426.461456 320.545441,426.809113 320.028687,427.119537 
	C319.991821,427.082306 320.092590,427.110901 319.716187,427.077759 
	C317.922272,426.667999 316.504791,426.291443 315.062012,425.577881 
	C314.388611,424.138885 313.740509,423.036896 313.076172,421.564819 
	C312.322754,419.811432 311.585510,418.428101 310.887512,417.029724 
	C310.926788,417.014648 310.917694,417.098267 310.952026,416.692078 
	C310.250763,414.136749 309.515106,411.987610 308.763489,409.743225 
	C308.747498,409.647980 308.923401,409.568115 308.945251,409.135925 
	C308.520538,407.490356 308.074005,406.277008 307.447754,404.812256 
	C307.163177,403.743347 307.058319,402.925842 306.965210,401.768250 
	C306.978333,400.975311 306.979675,400.522461 306.987518,399.596649 
	C306.670227,390.507599 306.334656,381.891907 306.025177,373.275299 
	C305.346344,354.378693 304.430237,335.485962 304.104919,316.583130 
	C303.913818,305.478851 304.577576,294.354523 305.024811,283.245972 
	C305.584686,269.338928 306.295563,255.437759 306.985352,241.536255 
	C307.260193,235.997818 307.652802,230.465195 308.292053,224.745087 
	C308.936005,224.209290 309.478363,223.914108 309.594696,223.499390 
	C315.033447,204.112000 320.435150,184.714233 325.791992,164.982849 
	C325.491638,163.787537 325.240417,162.927017 324.993439,161.617157 
	C324.673248,158.221207 324.178467,155.281906 324.051239,152.326782 
	C322.984833,127.556725 321.985870,102.783752 321.345642,78.050552 
	C325.709259,78.702316 329.693878,79.315201 333.678467,79.928085 
M317.064850,295.077454 
	C317.064850,295.077454 317.144836,295.111176 316.474976,295.112640 
	C315.992981,295.747253 315.510956,296.381866 315.001862,297.003693 
	C315.001862,297.003693 315.019073,297.028809 314.265198,297.148041 
	C310.229767,302.043823 312.084717,307.535400 312.802582,313.718567 
	C312.481628,316.165588 312.160645,318.612579 311.316986,321.688385 
	C311.223389,336.645477 310.950958,351.605286 311.181152,366.557404 
	C311.229462,369.697174 313.126129,372.808472 314.083862,375.939270 
	C314.083862,375.939270 314.113129,375.856873 314.092560,376.521057 
	C314.530762,376.918396 314.968994,377.315735 315.247894,377.746124 
	C315.247894,377.746124 315.306671,377.594391 315.364349,378.352081 
	C319.160339,379.556000 322.932709,380.851013 326.782135,381.848755 
	C327.264099,381.973694 328.153015,380.528381 328.917206,379.933502 
	C328.917206,379.933502 328.803619,379.854370 329.610840,379.803131 
	C330.075653,378.680298 330.899445,377.573090 330.949036,376.432190 
	C331.381378,366.493225 331.713837,356.549347 332.000061,346.604736 
	C332.362823,334.001007 332.723022,321.396240 332.903839,308.789337 
	C332.931335,306.871674 331.984863,304.940033 331.311462,302.338287 
	C331.372223,301.879944 331.432983,301.421600 332.150787,300.713409 
	C333.521454,297.540039 333.735657,294.553436 330.871429,292.081268 
	C330.871429,292.081268 330.833527,292.189331 330.876984,291.442230 
	C327.816376,286.769592 325.453735,290.088104 322.815460,292.278351 
	C322.815460,292.278351 322.618713,292.179779 321.805115,292.083954 
	C320.879333,292.742188 319.953552,293.400421 319.007965,293.998505 
	C319.007965,293.998505 319.060211,294.034271 318.429504,294.047607 
	C317.974762,294.419830 317.519989,294.792053 317.064850,295.077454 
z"/>
<path fill="#EEDA26" opacity="1.000000" stroke="none" 
	d="
M163.342316,408.690918 
	C163.316391,408.307800 163.290451,407.924652 163.357758,407.116394 
	C162.985794,405.763611 162.520599,404.835968 162.055389,403.908356 
	C162.045334,390.300415 162.035278,376.692505 162.417908,362.333191 
	C162.949020,357.494415 163.283340,353.401672 163.173309,349.320923 
	C163.051865,344.816437 162.522964,340.322906 162.171524,335.824615 
	C162.122131,323.537689 162.072754,311.250793 162.349472,298.174805 
	C162.763229,280.847382 162.859299,264.309082 162.903824,247.770630 
	C162.905396,247.185425 162.395798,246.598846 162.112091,245.677063 
	C162.107132,244.893234 162.114563,244.445267 162.336121,243.796997 
	C162.406357,242.733124 162.262466,241.869568 162.098785,240.537476 
	C162.084824,231.709808 162.090622,223.350693 162.344711,214.715515 
	C162.424103,212.295029 162.255234,210.150604 162.069778,207.538269 
	C162.110886,201.408646 162.168564,195.746948 162.573807,190.004852 
	C164.583145,189.661362 166.244919,189.398270 168.996674,188.962601 
	C168.996674,214.015625 168.871002,238.188995 169.133667,262.358124 
	C169.172577,265.937012 171.045731,269.495972 172.265396,273.246887 
	C172.644806,273.929382 172.829071,274.429138 172.773819,275.144653 
	C173.157639,279.991333 177.039764,279.273956 180.041016,279.971619 
	C180.010880,279.990509 180.019745,279.919952 180.158600,280.255066 
	C183.095535,283.846069 185.942932,284.105865 188.847992,280.812744 
	C188.845840,280.894501 188.689880,280.845093 189.022919,280.705231 
	C189.486694,279.653961 189.617416,278.742554 189.756973,277.888214 
	C189.765808,277.945282 189.674225,277.874908 190.040497,277.656097 
	C190.606476,275.832672 190.972626,274.228668 190.978897,272.623322 
	C191.020004,262.087646 190.983414,251.551682 190.980621,240.679565 
	C190.681412,239.556168 190.373795,238.768997 190.056717,237.561020 
	C189.686707,234.434814 189.326172,231.729416 188.821472,228.766357 
	C188.338943,228.312744 188.000565,228.116791 187.640015,227.852081 
	C187.617844,227.783340 187.706268,227.669083 187.797272,227.231079 
	C187.912292,226.203186 187.936310,225.613297 187.967468,224.675522 
	C187.343094,223.198120 186.711578,222.068588 186.064240,220.555389 
	C185.393311,218.426834 184.738190,216.681946 184.066315,214.538544 
	C184.128189,212.619492 184.206848,211.098969 184.285507,209.578461 
	C184.766647,209.491409 185.247787,209.404343 185.728928,209.317291 
	C187.148209,213.536713 188.498337,217.781845 190.049240,221.952316 
	C190.335190,222.721298 191.433807,223.188065 192.401459,223.975037 
	C192.759827,224.322968 192.874054,224.490173 192.991547,224.881958 
	C192.984680,225.406311 192.983276,225.706116 192.995422,226.425995 
	C194.329025,238.661819 196.172989,250.447891 196.857132,262.300903 
	C197.727081,277.373169 198.053177,292.504120 197.884689,307.601624 
	C197.705414,323.668396 196.567429,339.722229 196.046188,355.788116 
	C195.567123,370.553284 195.351578,385.326965 195.019989,400.425903 
	C195.030304,401.195770 195.040558,401.636627 195.004730,402.465149 
	C193.535706,408.474701 192.112747,414.096558 190.455185,419.966248 
	C188.829819,423.142212 187.439041,426.070404 185.692566,428.904541 
	C180.181534,425.818237 175.110672,426.221161 170.103622,429.189423 
	C169.813675,428.971466 169.523712,428.753510 169.191956,427.884521 
	C167.214203,421.052643 165.278259,414.871765 163.342316,408.690918 
M185.379272,378.791809 
	C185.595993,378.531616 185.812714,378.271423 186.133743,377.630280 
	C186.133743,377.630280 186.221207,377.245148 186.646729,377.158722 
	C186.646729,377.158722 187.069489,377.056885 187.796494,376.889587 
	C188.852295,373.370361 190.819778,369.849762 190.814621,366.332092 
	C190.783279,344.947662 190.369736,323.562195 189.847977,302.182861 
	C189.805099,300.425812 188.006668,298.711578 187.000000,297.000000 
	C187.000000,297.000000 187.022537,296.974487 186.941223,296.350739 
	C186.341476,295.850983 185.741730,295.351196 184.926590,294.187042 
	C183.674057,293.736969 182.421539,293.286865 180.894638,292.169220 
	C179.564392,291.807922 178.234146,291.446625 176.970642,291.033844 
	C176.970642,291.033844 176.969284,291.118134 176.633804,290.572968 
	C176.031662,290.452576 175.429535,290.332214 174.925873,290.214417 
	C174.925873,290.214417 174.872299,290.297089 174.626831,289.682831 
	C173.868362,289.945404 173.109879,290.208008 172.247482,290.377167 
	C172.247482,290.377167 172.384552,290.350037 171.731430,290.415222 
	C171.546555,290.999298 171.361664,291.583405 171.089294,292.099457 
	C171.089294,292.099457 171.173737,292.027679 170.510544,292.556030 
	C170.378067,292.858765 170.130005,293.161285 170.129532,293.464203 
	C170.089691,319.252502 169.967682,345.041687 170.181824,370.828033 
	C170.207108,373.873474 172.082855,376.903595 173.044785,379.988220 
	C173.044785,379.988220 173.027100,379.916962 173.299774,380.447968 
	C173.657349,380.604401 174.014923,380.760834 174.706223,380.891052 
	C174.706223,380.891052 174.999405,381.052704 175.525040,381.573486 
	C177.700607,380.997925 179.876160,380.422363 182.243561,379.715668 
	C182.243561,379.715668 182.427185,379.858063 183.173065,379.898956 
	C183.772141,379.551575 184.371216,379.204193 184.974533,378.949158 
	C184.974533,378.949158 184.882660,378.939178 185.379272,378.791809 
z"/>
<path fill="#EEDB24" opacity="1.000000" stroke="none" 
	d="
M160.164276,111.808418 
	C160.717880,108.774109 161.271484,105.739807 162.358490,102.246094 
	C165.256592,94.387909 167.621307,86.989128 169.657883,80.617027 
	C174.452835,79.594330 178.219818,78.790886 181.936890,78.398132 
	C181.613144,79.763840 181.163483,80.705872 181.091934,81.675812 
	C180.033752,96.016518 178.808868,110.349777 178.070755,124.707794 
	C177.415512,137.453888 177.313812,150.228424 176.738037,163.161926 
	C176.350037,163.869278 176.191788,164.405121 175.681427,165.018921 
	C174.989746,165.903778 174.216766,166.811813 174.377823,167.501831 
	C175.952698,174.248596 177.745560,180.944427 179.327499,187.689667 
	C179.739151,189.444901 179.631042,191.322021 179.813080,193.860168 
	C178.004181,192.408981 177.059021,191.650726 176.081726,190.486359 
	C174.821121,185.305176 173.775421,180.469879 172.235580,175.797424 
	C171.851074,174.630676 169.874268,173.988647 168.629333,173.105453 
	C167.939636,174.544449 167.249939,175.983444 166.519104,177.423462 
	C166.477982,177.424484 166.426193,177.488403 166.139572,177.426804 
	C165.557297,177.821899 165.261642,178.278595 164.894073,178.886261 
	C164.822159,179.037247 164.495712,179.110077 164.110626,179.028885 
	C163.209305,177.650497 162.693085,176.353302 162.482330,174.976303 
	C162.590820,173.909927 162.393860,172.923370 162.163467,171.473541 
	C162.092941,164.217331 162.153091,157.421921 161.983154,150.632278 
	C161.876938,146.389114 161.423889,142.154617 161.103867,137.455505 
	C161.067459,133.165100 161.159637,129.331360 161.012512,125.506821 
	C160.836700,120.936577 160.456146,116.374199 160.164276,111.808418 
z"/>
<path fill="#FAFBE7" opacity="1.000000" stroke="none" 
	d="
M169.208359,74.987000 
	C170.923798,69.784782 173.303391,65.058395 178.979889,62.306351 
	C181.337585,62.252583 183.191330,62.501167 184.754456,61.940071 
	C190.035492,60.044411 195.174255,57.751854 200.457565,55.863316 
	C201.826477,55.373993 204.374878,55.216385 204.881241,55.946663 
	C205.735825,57.179146 206.002991,59.495758 205.419556,60.900616 
	C204.366714,63.435764 202.503860,65.634521 200.681839,68.095436 
	C199.267624,68.860725 198.150894,69.504349 196.669769,70.141159 
	C191.205994,72.103546 186.066910,73.977066 181.019516,76.071594 
	C176.826508,77.811577 172.774094,79.445694 169.208359,74.987000 
z"/>
<path fill="#FAFBE7" opacity="1.000000" stroke="none" 
	d="
M322.978119,62.834137 
	C325.272156,65.059647 327.566223,67.285149 329.706238,69.892403 
	C330.119751,72.221886 330.687317,74.169624 331.016357,76.420547 
	C328.675110,76.922333 326.441772,77.669922 324.496460,77.207069 
	C320.233643,76.192818 316.116760,74.565071 311.682983,73.078018 
	C311.062317,72.887993 310.698944,72.807800 310.182007,72.419189 
	C306.676605,70.437790 303.324799,68.764793 299.743134,66.861343 
	C298.591309,65.439957 297.669281,64.249031 296.790100,62.667030 
	C296.547241,60.185211 296.261566,58.094479 296.079071,55.820526 
	C296.182251,55.637306 296.343842,55.249012 296.730408,55.217861 
	C299.023285,55.576241 300.977966,55.809803 302.827209,56.383255 
	C309.563232,58.472088 316.264038,60.674522 322.978119,62.834137 
z"/>
<path fill="#403719" opacity="1.000000" stroke="none" 
	d="
M329.965393,433.970154 
	C327.694916,440.749603 321.496277,442.982300 315.865540,445.311554 
	C303.899384,450.261505 291.162231,451.853516 278.299377,452.517883 
	C265.442932,453.181793 252.595978,454.258301 239.733292,454.479156 
	C232.977295,454.595154 226.196487,453.266907 219.138931,451.961548 
	C216.287628,450.548462 213.690445,449.859161 211.170105,448.955505 
	C208.405380,447.964203 205.711517,446.775299 203.412048,445.687988 
	C214.939865,447.636688 226.042450,449.569916 237.587708,451.633636 
	C249.745682,451.235962 261.460968,450.707764 273.115051,450.179810 
	C273.053894,450.180023 273.092621,450.296082 273.536591,450.312195 
	C284.679688,447.898926 295.378815,445.469574 306.449463,443.006378 
	C308.433380,442.443237 310.045807,441.913910 311.866821,441.663269 
	C313.001038,441.909332 314.073944,442.172333 314.828461,441.796356 
	C319.911804,439.263275 324.927673,436.594788 329.965393,433.970154 
z"/>
<path fill="#EAE35A" opacity="1.000000" stroke="none" 
	d="
M322.861603,62.519493 
	C316.264038,60.674522 309.563232,58.472088 302.827209,56.383255 
	C300.977966,55.809803 299.023285,55.576241 296.434021,54.916904 
	C286.952118,53.430592 278.168304,51.336514 269.350952,51.184166 
	C252.131027,50.886631 234.889313,51.574898 217.663895,52.095455 
	C214.153809,52.201530 210.675735,53.366806 207.244995,54.031776 
	C208.332779,62.906738 206.482605,66.756088 200.979324,67.973770 
	C202.503860,65.634521 204.366714,63.435764 205.419556,60.900616 
	C206.002991,59.495758 205.735825,57.179146 204.881241,55.946663 
	C204.374878,55.216385 201.826477,55.373993 200.457565,55.863316 
	C195.174255,57.751854 190.035492,60.044411 184.754456,61.940071 
	C183.191330,62.501167 181.337585,62.252583 179.300262,62.173790 
	C187.510239,54.381577 198.437790,53.323696 208.900604,51.063103 
	C211.922058,50.410286 215.044846,50.226299 218.710236,50.206055 
	C223.875992,50.060638 228.452698,49.536541 233.029404,49.012440 
	C233.460297,49.036617 233.891190,49.060799 235.097702,49.144085 
	C245.926636,49.107620 255.979950,49.012051 266.033264,48.916481 
	C266.462921,48.965454 266.892548,49.014431 267.889740,49.180580 
	C268.846252,49.316143 269.235199,49.334526 270.015656,49.525669 
	C279.908539,50.867077 289.414429,52.000942 298.908966,53.222939 
	C302.303101,53.659779 305.669800,54.309750 309.049042,54.862442 
	C313.614380,57.309914 318.179749,59.757385 322.861603,62.519493 
z"/>
<path fill="#222017" opacity="1.000000" stroke="none" 
	d="
M164.495728,179.110077 
	C164.495712,179.110077 164.822159,179.037247 165.132492,178.801956 
	C165.770615,178.207245 166.098404,177.847824 166.426178,177.488403 
	C166.426193,177.488403 166.477982,177.424484 166.817154,177.302429 
	C167.920868,176.463120 168.685394,175.745850 169.739731,174.756683 
	C171.360336,179.665527 172.825943,184.104935 174.185455,188.970184 
	C174.055618,190.266266 174.031906,191.136505 173.750702,191.887909 
	C172.991928,191.506424 172.490616,191.243774 171.759613,190.828217 
	C171.059906,190.119629 170.589890,189.563950 169.880646,188.742462 
	C167.097717,188.559280 164.554047,188.641891 161.692780,188.748169 
	C160.969986,189.157578 160.564804,189.543335 160.159622,189.929108 
	C154.921539,190.902740 149.683441,191.876389 143.523117,193.021439 
	C147.801910,185.840240 155.055435,185.437317 161.196991,182.037308 
	C162.644440,180.824875 163.570084,179.967484 164.495728,179.110077 
z"/>
<path fill="#222017" opacity="1.000000" stroke="none" 
	d="
M327.771057,188.819458 
	C329.163391,184.298996 330.555725,179.778534 331.845581,175.590820 
	C334.844910,177.170776 337.508270,178.573761 340.550629,179.895859 
	C342.189453,184.950943 347.067657,185.145630 350.736572,186.981812 
	C353.176086,188.202698 356.511627,188.415512 357.020966,193.058289 
	C351.609344,191.655991 346.807831,190.411789 341.330109,188.969650 
	C340.433655,188.730240 340.213440,188.688766 339.684692,188.414368 
	C336.863434,188.456146 334.350677,188.730850 331.618073,188.992996 
	C331.398193,188.980423 330.957825,188.990616 330.558319,188.994202 
	C329.362885,188.938354 328.566986,188.878906 327.771057,188.819458 
z"/>
<path fill="#D4190B" opacity="1.000000" stroke="none" 
	d="
M330.184509,433.774780 
	C324.927673,436.594788 319.911804,439.263275 314.828461,441.796356 
	C314.073944,442.172333 313.001038,441.909332 312.083038,441.404785 
	C313.093353,438.629639 314.096069,436.391693 315.394409,433.914032 
	C315.280426,430.227386 317.246948,428.374298 320.092590,427.110901 
	C320.092590,427.110901 319.991821,427.082306 320.342163,427.136047 
	C321.175232,426.850525 321.657990,426.511261 322.140747,426.171997 
	C322.140717,426.171997 322.064117,426.086639 322.440430,426.187683 
	C324.523346,426.564301 326.229919,426.839905 327.936523,427.115479 
	C327.936523,427.115509 328.014343,427.078033 328.137695,427.361572 
	C329.425781,428.158234 330.590485,428.671326 331.849609,429.401123 
	C332.124359,429.887451 332.361572,430.090729 332.655640,430.227692 
	C331.904968,431.344910 331.154327,432.462158 330.184509,433.774780 
z"/>
<path fill="#D4190B" opacity="1.000000" stroke="none" 
	d="
M170.103241,429.366150 
	C175.110672,426.221161 180.181534,425.818237 185.664978,428.904541 
	C185.993118,428.998596 186.001022,428.943817 186.023132,429.383148 
	C185.757645,433.883057 185.703278,437.877167 188.784393,440.897705 
	C186.962799,440.650757 185.276062,440.765930 184.178787,440.017242 
	C179.428406,436.775818 174.850250,433.281982 170.209457,429.879944 
	C170.209457,429.879944 170.102875,429.542908 170.103241,429.366150 
z"/>
<path fill="#EAE35A" opacity="1.000000" stroke="none" 
	d="
M169.075653,75.281509 
	C172.774094,79.445694 176.826508,77.811577 181.019516,76.071594 
	C186.066910,73.977066 191.205994,72.103546 196.607727,70.477196 
	C191.935638,73.209167 186.961227,75.598297 181.986801,77.987427 
	C178.219818,78.790886 174.452835,79.594330 169.657883,80.617027 
	C167.621307,86.989128 165.256592,94.387909 162.541138,101.881409 
	C163.419571,96.207054 164.529953,90.409035 165.925537,84.680489 
	C166.679810,81.584389 167.921265,78.606979 169.075653,75.281509 
z"/>
<path fill="#333333" opacity="1.000000" stroke="none" 
	d="
M202.986786,445.672546 
	C205.711517,446.775299 208.405380,447.964203 211.170105,448.955505 
	C213.690445,449.859161 216.287628,450.548462 218.916412,451.714844 
	C206.232758,451.877808 194.157547,448.535370 182.346909,444.067139 
	C181.426880,443.719025 180.833130,442.508545 180.435806,441.358551 
	C184.892075,441.647308 189.000259,442.276367 193.096466,442.921997 
	C193.084488,442.938568 193.053619,442.963715 193.101318,443.338531 
	C196.314499,444.411835 199.479996,445.110321 202.718903,445.744934 
	C202.792343,445.681091 202.986771,445.672546 202.986786,445.672546 
z"/>
<path fill="#F1EB80" opacity="1.000000" stroke="none" 
	d="
M339.993225,188.647278 
	C340.213440,188.688766 340.433655,188.730240 340.974121,188.874207 
	C341.193390,196.107895 341.014191,203.238983 341.005463,210.370270 
	C340.974152,235.937881 341.000488,261.505554 340.683350,287.553528 
	C340.193665,288.042725 340.025696,288.051575 339.857758,288.060425 
	C339.875793,280.346466 339.893829,272.632538 339.932190,263.985291 
	C339.922028,253.040222 339.891571,243.028473 339.861084,233.016724 
	C339.892700,219.322357 339.924347,205.627975 339.959839,191.074554 
	C339.973511,189.692764 339.983368,189.170029 339.993225,188.647278 
z"/>
<path fill="#F1EB80" opacity="1.000000" stroke="none" 
	d="
M160.517517,190.175995 
	C160.564804,189.543335 160.969986,189.157578 161.731659,189.090851 
	C162.134171,189.635010 162.180191,189.860138 162.226227,190.085251 
	C162.168564,195.746948 162.110886,201.408646 162.036011,207.973572 
	C162.044678,210.915070 162.070557,212.953308 162.096436,214.991562 
	C162.090622,223.350693 162.084824,231.709808 162.058472,240.910187 
	C162.065933,242.500061 162.093964,243.248688 162.121979,243.997299 
	C162.114563,244.445267 162.107132,244.893234 162.071869,246.141968 
	C162.031525,257.050507 162.062408,267.158661 161.968109,277.265656 
	C161.950333,279.170868 161.433884,281.071472 161.147522,282.974182 
	C161.100723,253.945511 161.056137,224.916855 161.001846,195.888199 
	C160.998444,194.066360 160.919327,192.244644 160.517517,190.175995 
z"/>
<path fill="#F8F1A0" opacity="1.000000" stroke="none" 
	d="
M340.873962,177.453705 
	C340.618713,167.985291 340.249847,158.069473 340.276031,148.154709 
	C340.307159,136.368179 340.677826,124.582542 340.940826,112.316711 
	C341.322845,113.336502 341.954895,114.834496 341.963165,116.335922 
	C342.046600,131.479294 342.119171,146.624008 341.986786,161.766525 
	C341.942352,166.849289 341.302826,171.926834 340.873962,177.453705 
z"/>
<path fill="#D9CD47" opacity="1.000000" stroke="none" 
	d="
M161.074799,283.433838 
	C161.433884,281.071472 161.950333,279.170868 161.968109,277.265656 
	C162.062408,267.158661 162.031525,257.050507 162.084229,246.477829 
	C162.395798,246.598846 162.905396,247.185425 162.903824,247.770630 
	C162.859299,264.309082 162.763229,280.847382 162.412537,297.712402 
	C161.767029,293.323883 161.384537,288.608704 161.074799,283.433838 
z"/>
<path fill="#EAE35A" opacity="1.000000" stroke="none" 
	d="
M164.110626,179.028900 
	C163.570084,179.967484 162.644440,180.824875 161.410400,181.741394 
	C160.746948,170.168365 160.391907,158.536224 160.364197,146.141098 
	C160.836517,142.890808 160.981506,140.403519 161.126495,137.916229 
	C161.423889,142.154617 161.876938,146.389114 161.983154,150.632278 
	C162.153091,157.421921 162.092941,164.217331 162.110779,171.862091 
	C162.119980,173.494629 162.148422,174.275375 162.176880,175.056107 
	C162.693085,176.353302 163.209305,177.650497 164.110626,179.028900 
z"/>
<path fill="#655D22" opacity="1.000000" stroke="none" 
	d="
M308.790344,54.603294 
	C305.669800,54.309750 302.303101,53.659779 298.908966,53.222939 
	C289.414429,52.000942 279.908539,50.867077 270.414948,49.410393 
	C271.945892,48.787628 273.469025,48.452900 274.992157,48.118172 
	C283.547577,49.426212 292.117126,50.650768 300.650146,52.091450 
	C303.327759,52.543522 305.907257,53.576862 308.790344,54.603294 
z"/>
<path fill="#77241E" opacity="1.000000" stroke="none" 
	d="
M193.108444,442.905426 
	C189.000259,442.276367 184.892075,441.647308 180.383957,441.027222 
	C175.513077,438.688568 171.469528,435.938507 170.187500,430.244385 
	C174.850250,433.281982 179.428406,436.775818 184.178787,440.017242 
	C185.276062,440.765930 186.962799,440.650757 189.093826,440.981323 
	C190.909073,441.654846 192.008759,442.280121 193.108444,442.905426 
z"/>
<path fill="#413D0E" opacity="1.000000" stroke="none" 
	d="
M265.737640,48.654381 
	C255.979950,49.012051 245.926636,49.107620 235.415283,49.075230 
	C236.268906,48.311043 237.598450,47.092659 238.889297,47.132389 
	C247.744736,47.404961 256.592072,47.941055 265.737640,48.654381 
z"/>
<path fill="#655D22" opacity="1.000000" stroke="none" 
	d="
M332.862549,429.899536 
	C332.361572,430.090729 332.124359,429.887451 332.022766,429.060120 
	C332.435547,427.303589 332.769562,426.104736 333.103577,424.905914 
	C334.757965,419.634857 336.412384,414.363800 338.366943,408.891113 
	C339.984467,416.503448 335.998962,422.895905 332.862549,429.899536 
z"/>
<path fill="#EAE35A" opacity="1.000000" stroke="none" 
	d="
M311.940308,73.187851 
	C316.116760,74.565071 320.233643,76.192818 324.496460,77.207069 
	C326.441772,77.669922 328.675110,76.922333 331.243652,76.637978 
	C332.350769,77.040611 332.992035,77.529007 333.633301,78.017410 
	C333.675049,78.441971 333.716797,78.866539 333.718506,79.609589 
	C329.693878,79.315201 325.709259,78.702316 320.992004,77.992157 
	C317.486328,76.325859 314.713318,74.756859 311.940308,73.187851 
z"/>
<path fill="#655D22" opacity="1.000000" stroke="none" 
	d="
M163.184723,409.114899 
	C165.278259,414.871765 167.214203,421.052643 169.080399,427.635590 
	C167.675995,425.507507 165.931778,423.102844 165.108429,420.415985 
	C164.033218,416.907166 163.686996,413.174957 163.184723,409.114899 
z"/>
<path fill="#F8F1A0" opacity="1.000000" stroke="none" 
	d="
M161.103882,137.455505 
	C160.981506,140.403519 160.836517,142.890808 160.431061,145.677002 
	C160.115387,134.909637 160.060211,123.843384 160.084656,112.292770 
	C160.456146,116.374199 160.836700,120.936577 161.012512,125.506821 
	C161.159637,129.331360 161.067459,133.165100 161.103882,137.455505 
z"/>
<path fill="#413D0E" opacity="1.000000" stroke="none" 
	d="
M232.812271,48.740494 
	C228.452698,49.536541 223.875992,50.060638 219.151627,50.239109 
	C223.534363,49.418499 228.064743,48.943523 232.812271,48.740494 
z"/>
<path fill="#F8F1A0" opacity="1.000000" stroke="none" 
	d="
M339.915039,363.645264 
	C339.481110,360.288483 338.902039,356.460693 338.835510,352.623962 
	C338.747711,347.561615 339.062042,342.492340 339.518921,337.117676 
	C339.888916,345.596283 339.943481,354.383270 339.915039,363.645264 
z"/>
<path fill="#F8F1A0" opacity="1.000000" stroke="none" 
	d="
M162.085449,336.304199 
	C162.522964,340.322906 163.051865,344.816437 163.173309,349.320923 
	C163.283340,353.401672 162.949020,357.494415 162.489426,361.887665 
	C162.111954,353.723602 162.055664,345.253693 162.085449,336.304199 
z"/>
<path fill="#D9CD47" opacity="1.000000" stroke="none" 
	d="
M339.602417,288.350769 
	C340.025696,288.051575 340.193665,288.042725 340.613342,288.017639 
	C340.849457,290.886383 340.833862,293.771362 340.452515,296.880737 
	C339.840210,294.283752 339.593628,291.462433 339.602417,288.350769 
z"/>
<path fill="#D9CD47" opacity="1.000000" stroke="none" 
	d="
M333.711487,77.710358 
	C332.992035,77.529007 332.350769,77.040611 331.482208,76.334793 
	C330.687317,74.169624 330.119751,72.221886 329.890320,70.233925 
	C331.415558,72.596909 332.602631,75.000114 333.711487,77.710358 
z"/>
<path fill="#413D0E" opacity="1.000000" stroke="none" 
	d="
M274.618011,48.035194 
	C273.469025,48.452900 271.945892,48.787628 270.023468,49.237633 
	C269.235199,49.334526 268.846252,49.316143 268.211731,49.134888 
	C269.501678,45.202923 272.045929,47.643562 274.618011,48.035194 
z"/>
<path fill="#D9CD47" opacity="1.000000" stroke="none" 
	d="
M336.544250,87.813919 
	C335.900970,86.708542 335.400055,85.255249 334.916565,83.431900 
	C335.518188,84.529907 336.102386,85.997948 336.544250,87.813919 
z"/>
<path fill="#655D22" opacity="1.000000" stroke="none" 
	d="
M161.955780,404.268188 
	C162.520599,404.835968 162.985794,405.763611 163.218185,406.863770 
	C162.608963,406.233582 162.232559,405.430817 161.955780,404.268188 
z"/>
<path fill="#655D22" opacity="1.000000" stroke="none" 
	d="
M339.489990,405.906372 
	C339.308899,405.436157 339.434601,404.847198 339.755554,404.086914 
	C339.899445,404.539612 339.848083,405.163635 339.489990,405.906372 
z"/>
<path fill="#D9CD47" opacity="1.000000" stroke="none" 
	d="
M337.031189,88.571495 
	C336.895172,88.456406 336.943024,88.523438 336.919250,88.557083 
	C336.986084,88.622688 337.076630,88.654640 337.031189,88.571495 
z"/>
<path fill="#D9CD47" opacity="1.000000" stroke="none" 
	d="
M334.755920,80.791565 
	C334.366943,80.932121 334.137024,80.702095 333.875580,80.169952 
	C334.129272,80.124062 334.486267,80.308441 334.755920,80.791565 
z"/>
<path fill="#FDEE21" opacity="1.000000" stroke="none" 
	d="
M195.019943,400.096893 
	C195.351578,385.326965 195.567123,370.553284 196.046188,355.788116 
	C196.567429,339.722229 197.705414,323.668396 197.884689,307.601624 
	C198.053177,292.504120 197.727081,277.373169 196.857132,262.300903 
	C196.172989,250.447891 194.329025,238.661819 193.453812,226.420883 
	C207.960983,225.334045 222.011566,224.213287 236.068985,224.119705 
	C256.470886,223.983841 276.877747,224.589661 297.722900,224.863586 
	C301.439453,224.875305 304.715637,224.902618 307.991791,224.929932 
	C307.652802,230.465195 307.260193,235.997818 306.985352,241.536255 
	C306.295563,255.437759 305.584686,269.338928 305.024811,283.245972 
	C304.577576,294.354523 303.913818,305.478851 304.104919,316.583130 
	C304.430237,335.485962 305.346344,354.378693 306.025177,373.275299 
	C306.334656,381.891907 306.670227,390.507599 306.588501,399.628632 
	C295.716888,401.418823 285.277863,403.432159 274.778412,403.823334 
	C257.867676,404.453369 240.917053,404.013306 223.571167,404.001709 
	C213.779358,402.684387 204.399658,401.390656 195.019943,400.096893 
z"/>
<path fill="#FDEE21" opacity="1.000000" stroke="none" 
	d="
M311.682983,73.078026 
	C314.713318,74.756859 317.486328,76.325859 320.612976,77.953262 
	C321.985870,102.783752 322.984833,127.556725 324.051239,152.326782 
	C324.178467,155.281906 324.673248,158.221207 324.558990,161.601776 
	C322.374542,162.057907 320.628784,162.080093 318.925873,162.091553 
	C318.968750,162.080826 318.941010,162.164780 318.822937,161.822464 
	C317.142578,160.613342 315.674530,159.307846 314.003113,158.948532 
	C299.495331,155.829636 284.905396,153.083679 270.429260,149.829224 
	C252.670868,145.836853 235.219788,148.623810 217.765808,151.646667 
	C210.611511,152.885727 203.449387,154.284790 196.467270,156.240875 
	C191.784348,157.552856 187.411652,159.972137 182.624420,161.944458 
	C181.886658,162.283417 181.424637,162.573868 180.757278,162.910156 
	C180.551941,162.956009 180.133606,163.001541 179.738434,162.986267 
	C178.551437,162.977463 177.759598,162.983948 176.967773,162.990417 
	C177.313812,150.228424 177.415512,137.453888 178.070755,124.707794 
	C178.808868,110.349777 180.033752,96.016518 181.091934,81.675812 
	C181.163483,80.705872 181.613144,79.763840 181.936890,78.398125 
	C186.961227,75.598297 191.935638,73.209167 196.972107,70.484009 
	C198.150894,69.504349 199.267624,68.860725 200.681839,68.095436 
	C206.482605,66.756088 208.332779,62.906738 207.244995,54.031776 
	C210.675735,53.366806 214.153809,52.201530 217.663895,52.095455 
	C234.889313,51.574898 252.131027,50.886631 269.350952,51.184166 
	C278.168304,51.336514 286.952118,53.430592 296.047455,54.948055 
	C296.343842,55.249012 296.182251,55.637306 295.762634,55.974518 
	C293.164886,59.111332 293.681152,61.350094 296.747284,63.058113 
	C297.669281,64.249031 298.591309,65.439957 299.788025,67.205795 
	C303.487000,69.429680 306.911285,71.078644 310.335571,72.727600 
	C310.698944,72.807800 311.062317,72.887993 311.682983,73.078026 
z"/>
<path fill="#38362B" opacity="1.000000" stroke="none" 
	d="
M322.618713,292.179779 
	C322.618713,292.179779 322.815460,292.278351 323.285858,292.163910 
	C326.115356,292.096069 328.474426,292.142700 330.833527,292.189331 
	C330.833527,292.189331 330.871429,292.081268 330.843933,292.528503 
	C331.042206,295.638275 331.267975,298.300751 331.493744,300.963257 
	C331.432983,301.421600 331.372223,301.879944 331.293182,303.132385 
	C331.102020,319.667297 331.120636,335.413361 330.685120,351.146851 
	C330.419891,360.726044 329.454498,370.285858 328.803619,379.854370 
	C328.803619,379.854370 328.917206,379.933502 328.539551,380.002380 
	C323.876831,379.245667 319.591766,378.420044 315.306671,377.594391 
	C315.306671,377.594391 315.247894,377.746124 315.252136,377.447388 
	C314.875305,376.718048 314.494202,376.287476 314.113129,375.856873 
	C314.113129,375.856873 314.083862,375.939270 314.080566,375.516205 
	C313.663544,371.978455 312.974457,368.871857 312.882843,365.747711 
	C312.446106,350.854309 312.171783,335.956085 311.839661,321.059601 
	C312.160645,318.612579 312.481628,316.165588 312.838104,312.872955 
	C313.588776,307.027832 314.303925,302.028320 315.019073,297.028809 
	C315.019073,297.028809 315.001862,297.003693 315.278625,296.888062 
	C316.085205,296.218689 316.615021,295.664948 317.144836,295.111176 
	C317.144836,295.111176 317.064850,295.077454 317.363770,295.081421 
	C318.128510,294.735046 318.594360,294.384644 319.060211,294.034271 
	C319.060211,294.034271 319.007965,293.998505 319.357666,293.981812 
	C320.677826,293.369995 321.648285,292.774872 322.618713,292.179779 
z"/>
<path fill="#333332" opacity="1.000000" stroke="none" 
	d="
M327.764984,188.800583 
	C328.566986,188.878906 329.362885,188.938354 330.561218,189.375336 
	C330.970001,192.891006 331.021210,196.029816 330.975525,199.167191 
	C330.646362,221.774704 330.297607,244.381943 329.692200,267.274536 
	C329.319214,269.412506 329.209015,271.265167 329.113892,273.110992 
	C329.128998,273.104126 329.151276,273.131287 328.790039,273.131470 
	C325.167694,274.967865 322.006866,277.025116 318.611267,278.564575 
	C316.240570,279.639404 313.899139,279.460999 313.988495,275.794556 
	C314.335480,261.557190 314.665863,247.319397 315.014374,233.082047 
	C315.064819,231.020828 315.180481,228.961197 315.265045,226.596680 
	C315.290680,225.887192 315.317230,225.481857 315.343781,225.076523 
	C315.343781,225.076523 315.629395,225.016525 316.101135,224.840546 
	C319.791046,215.667130 323.083191,206.694885 326.165100,197.651001 
	C326.780212,195.845856 326.592377,193.767105 326.774780,191.814514 
	C326.774780,191.814514 326.814056,191.925919 327.088074,191.743484 
	C327.482788,190.642090 327.603516,189.723145 327.724243,188.804184 
	C327.724243,188.804184 327.758911,188.781723 327.764984,188.800583 
z"/>
<path fill="#4B450E" opacity="1.000000" stroke="none" 
	d="
M308.292053,224.745087 
	C304.715637,224.902618 301.439453,224.875305 297.493591,224.493332 
	C287.894928,223.677658 278.965973,223.216629 270.026672,222.570358 
	C270.016296,222.385117 269.972107,222.016663 270.354553,222.007507 
	C271.503113,221.986771 272.269257,221.975189 273.500427,221.967865 
	C285.368683,221.972107 296.771912,221.972107 308.912018,221.972107 
	C313.551025,205.851074 318.188324,189.483337 323.002075,173.167679 
	C324.374878,168.514801 324.071960,165.188202 318.473969,164.102921 
	C317.574066,163.928436 316.894775,162.616058 316.470459,161.842209 
	C317.531982,161.958084 318.236481,162.061432 318.941010,162.164780 
	C318.941010,162.164780 318.968750,162.080826 319.141357,162.365540 
	C321.489655,163.539398 323.665405,164.428528 325.841125,165.317642 
	C320.435150,184.714233 315.033447,204.112000 309.594696,223.499390 
	C309.478363,223.914108 308.936005,224.209290 308.292053,224.745087 
z"/>
<path fill="#413D0E" opacity="1.000000" stroke="none" 
	d="
M308.923401,409.568115 
	C308.923401,409.568115 308.747498,409.647980 308.747681,410.150757 
	C309.471130,412.801758 310.194397,414.950012 310.917694,417.098267 
	C310.917694,417.098267 310.926788,417.014648 310.881897,417.385223 
	C310.957336,418.453766 311.077698,419.151703 310.838013,419.752197 
	C309.313416,416.362732 307.785675,413.147430 307.070587,409.760559 
	C306.036194,404.861572 304.369995,403.623108 299.612854,404.220459 
	C290.777344,405.329956 281.913452,406.602844 273.032806,406.874725 
	C258.757416,407.311737 244.458649,407.023071 230.170242,406.947662 
	C228.430405,406.938477 226.693604,406.353241 225.302200,406.026123 
	C226.741623,405.799194 227.834229,405.581177 229.395493,405.300476 
	C236.281555,405.389618 242.698959,405.541382 249.417694,405.821808 
	C250.593872,405.889252 251.468719,405.828003 252.746140,405.699768 
	C271.083618,404.457947 289.018555,403.283142 306.953461,402.108337 
	C307.058319,402.925842 307.163177,403.743347 307.485077,405.210815 
	C308.109222,407.096588 308.516296,408.332367 308.923401,409.568115 
z"/>
<path fill="#D9CD47" opacity="1.000000" stroke="none" 
	d="
M339.684692,188.414368 
	C339.983368,189.170029 339.973511,189.692764 339.937317,190.606262 
	C337.900269,190.616043 335.889557,190.235062 333.878845,189.854080 
	C333.660461,191.940002 333.230560,194.030151 333.272247,196.110855 
	C333.338196,199.405441 333.915710,202.692596 333.934113,205.984818 
	C334.014862,220.441437 334.224670,234.904968 333.866974,249.353104 
	C333.692261,256.410065 332.377533,263.438751 331.190125,270.667542 
	C330.801453,270.854797 330.527924,270.646942 330.572205,270.281494 
	C330.692047,268.938690 330.767639,267.961334 330.944275,266.565002 
	C331.309570,240.432495 331.573761,214.719025 331.837952,189.005554 
	C334.350677,188.730850 336.863434,188.456146 339.684692,188.414368 
z"/>
<path fill="#4B450E" opacity="1.000000" stroke="none" 
	d="
M315.265991,226.900833 
	C315.180481,228.961197 315.064819,231.020828 315.014374,233.082047 
	C314.665863,247.319397 314.335480,261.557190 313.988495,275.794556 
	C313.899139,279.460999 316.240570,279.639404 318.611267,278.564575 
	C322.006866,277.025116 325.167694,274.967865 328.773315,273.439697 
	C329.052734,274.153534 328.987671,274.559357 328.922577,274.965179 
	C328.922577,274.965179 328.990082,274.994080 328.719147,275.103699 
	C328.187408,275.717621 327.926605,276.221924 327.665771,276.726227 
	C327.665771,276.726227 327.789703,276.758087 327.466064,276.743042 
	C326.716858,277.111847 326.291321,277.495636 325.865753,277.879456 
	C325.865753,277.879456 325.945496,277.923431 325.638367,277.904053 
	C324.859497,278.237549 324.387726,278.590424 323.915955,278.943298 
	C323.915955,278.943298 323.981476,278.983459 323.704834,278.972351 
	C323.211151,279.217896 322.994049,279.474518 322.776978,279.731171 
	C322.776978,279.731171 322.885834,279.681519 322.428406,279.673553 
	C314.266388,282.097504 314.266388,282.097504 312.159393,276.473755 
	C312.159393,276.473755 312.356018,276.304779 312.345886,275.709930 
	C312.391113,263.716797 312.446503,252.318527 312.501892,240.920242 
	C312.571899,240.485840 312.641846,240.051422 312.784485,238.880615 
	C313.296875,235.075821 313.736572,232.007416 314.176270,228.939026 
	C314.176300,228.939026 314.311005,228.750031 314.484314,228.416168 
	C314.860443,227.688477 315.063202,227.294647 315.265991,226.900833 
z"/>
<path fill="#E2D649" opacity="1.000000" stroke="none" 
	d="
M329.207214,379.828735 
	C329.454498,370.285858 330.419891,360.726044 330.685120,351.146851 
	C331.120636,335.413361 331.102020,319.667297 331.381897,303.470703 
	C331.984863,304.940033 332.931335,306.871674 332.903839,308.789337 
	C332.723022,321.396240 332.362823,334.001007 332.000061,346.604736 
	C331.713837,356.549347 331.381378,366.493225 330.949036,376.432190 
	C330.899445,377.573090 330.075653,378.680298 329.207214,379.828735 
z"/>
<path fill="#EAE149" opacity="1.000000" stroke="none" 
	d="
M306.965210,401.768250 
	C289.018555,403.283142 271.083618,404.457947 252.440338,405.551575 
	C250.860107,405.544647 249.988251,405.618896 249.116379,405.693115 
	C242.698959,405.541382 236.281555,405.389618 228.995499,405.197174 
	C226.753571,405.057892 225.380295,404.959320 224.001099,404.651886 
	C223.995193,404.443024 223.983276,404.025299 223.983276,404.025299 
	C240.917053,404.013306 257.867676,404.453369 274.778412,403.823334 
	C285.277863,403.432159 295.716888,401.418823 306.582031,400.101593 
	C306.979675,400.522461 306.978333,400.975311 306.965210,401.768250 
z"/>
<path fill="#E2D649" opacity="1.000000" stroke="none" 
	d="
M311.578308,321.373993 
	C312.171783,335.956085 312.446106,350.854309 312.882843,365.747711 
	C312.974457,368.871857 313.663544,371.978455 314.124207,375.513000 
	C313.126129,372.808472 311.229462,369.697174 311.181152,366.557404 
	C310.950958,351.605286 311.223389,336.645477 311.578308,321.373993 
z"/>
<path fill="#4B450E" opacity="1.000000" stroke="none" 
	d="
M326.519775,192.064407 
	C326.592377,193.767105 326.780212,195.845856 326.165100,197.651001 
	C323.083191,206.694885 319.791046,215.667130 316.240662,224.797760 
	C319.360535,214.058746 322.812653,203.186523 326.519775,192.064407 
z"/>
<path fill="#D9CD47" opacity="1.000000" stroke="none" 
	d="
M312.159454,241.090942 
	C312.446503,252.318527 312.391113,263.716797 312.295166,275.590607 
	C311.833893,275.047577 311.056000,274.031860 311.047791,273.009979 
	C310.967621,263.012421 311.002563,253.013702 311.061157,243.015656 
	C311.064606,242.429520 311.553833,241.846252 312.159454,241.090942 
z"/>
<path fill="#D9CD47" opacity="1.000000" stroke="none" 
	d="
M339.606262,233.336334 
	C339.891571,243.028473 339.922028,253.040222 339.910583,263.515961 
	C339.581177,259.614075 339.107483,255.250565 339.052185,250.881760 
	C338.979553,245.142014 339.236298,239.398087 339.606262,233.336334 
z"/>
<path fill="#E2D649" opacity="1.000000" stroke="none" 
	d="
M314.642151,297.088440 
	C314.303925,302.028320 313.588776,307.027832 312.772797,312.463074 
	C312.084717,307.535400 310.229767,302.043823 314.642151,297.088440 
z"/>
<path fill="#E2D649" opacity="1.000000" stroke="none" 
	d="
M315.335510,377.973236 
	C319.591766,378.420044 323.876831,379.245667 328.507660,379.940979 
	C328.153015,380.528381 327.264099,381.973694 326.782135,381.848755 
	C322.932709,380.851013 319.160339,379.556000 315.335510,377.973236 
z"/>
<path fill="#D9CD47" opacity="1.000000" stroke="none" 
	d="
M312.114624,276.905396 
	C314.266388,282.097504 314.266388,282.097504 322.368652,279.670837 
	C320.104156,280.571533 317.474884,281.881378 314.758728,282.097290 
	C313.993378,282.158112 312.973175,279.012177 312.114624,276.905396 
z"/>
<path fill="#E2D649" opacity="1.000000" stroke="none" 
	d="
M319.716187,427.077759 
	C317.246948,428.374298 315.280426,430.227386 315.323792,433.541412 
	C313.897430,432.433563 312.837311,431.458618 312.058777,430.284454 
	C314.542053,429.661774 315.745667,428.622314 314.820129,426.139313 
	C314.909912,426.065399 315.087280,425.914886 315.087280,425.914886 
	C316.504791,426.291443 317.922272,426.667999 319.716187,427.077759 
z"/>
<path fill="#E2D649" opacity="1.000000" stroke="none" 
	d="
M331.822266,300.838318 
	C331.267975,298.300751 331.042206,295.638275 330.786682,292.529114 
	C333.735657,294.553436 333.521454,297.540039 331.822266,300.838318 
z"/>
<path fill="#E2D649" opacity="1.000000" stroke="none" 
	d="
M330.855255,291.815796 
	C328.474426,292.142700 326.115356,292.096069 323.368011,292.090729 
	C325.453735,290.088104 327.816376,286.769592 330.855255,291.815796 
z"/>
<path fill="#D9CD47" opacity="1.000000" stroke="none" 
	d="
M313.856934,229.157166 
	C313.736572,232.007416 313.296875,235.075821 312.744080,238.551025 
	C312.933167,235.763641 313.235382,232.569458 313.856934,229.157166 
z"/>
<path fill="#EAE149" opacity="1.000000" stroke="none" 
	d="
M325.791992,164.982849 
	C323.665405,164.428528 321.489655,163.539398 319.098450,162.376266 
	C320.628784,162.080093 322.374542,162.057907 324.554779,162.051117 
	C325.240417,162.927017 325.491638,163.787537 325.791992,164.982849 
z"/>
<path fill="#E2D649" opacity="1.000000" stroke="none" 
	d="
M332.807007,425.126953 
	C332.769562,426.104736 332.435547,427.303589 331.928345,428.843414 
	C330.590485,428.671326 329.425781,428.158234 328.095612,427.367371 
	C329.456879,426.509094 330.983643,425.928558 332.807007,425.126953 
z"/>
<path fill="#E2D649" opacity="1.000000" stroke="none" 
	d="
M310.952026,416.692078 
	C310.194397,414.950012 309.471130,412.801758 308.763672,410.246002 
	C309.515106,411.987610 310.250763,414.136749 310.952026,416.692078 
z"/>
<path fill="#E2D649" opacity="1.000000" stroke="none" 
	d="
M327.797058,426.779175 
	C326.229919,426.839905 324.523346,426.564301 322.444336,426.244873 
	C323.933777,426.281677 325.795685,426.362274 327.797058,426.779175 
z"/>
<path fill="#E2D649" opacity="1.000000" stroke="none" 
	d="
M311.198029,419.849670 
	C311.077698,419.151703 310.957336,418.453766 310.842621,417.400299 
	C311.585510,418.428101 312.322754,419.811432 313.021484,421.608429 
	C312.982971,422.022125 312.877045,422.113556 312.684662,422.041748 
	C312.492279,421.969910 312.098846,421.851868 312.075806,421.893738 
	C312.052765,421.935577 312.143982,421.964111 312.128723,421.653625 
	C311.783905,420.846771 311.454346,420.350342 311.143585,419.865723 
	C311.162415,419.877472 311.198029,419.849670 311.198029,419.849670 
z"/>
<path fill="#D9CD47" opacity="1.000000" stroke="none" 
	d="
M329.283600,274.916443 
	C328.987671,274.559357 329.052734,274.153534 329.134552,273.439514 
	C329.151276,273.131287 329.128998,273.104126 329.352295,272.941528 
	C329.893066,272.068268 330.210510,271.357605 330.527924,270.646942 
	C330.527924,270.646942 330.801453,270.854797 330.938171,270.960419 
	C330.598145,272.333252 330.121368,273.600494 329.283600,274.916443 
z"/>
<path fill="#E2D649" opacity="1.000000" stroke="none" 
	d="
M322.211914,292.131866 
	C321.648285,292.774872 320.677826,293.369995 319.367584,294.011871 
	C319.953552,293.400421 320.879333,292.742188 322.211914,292.131866 
z"/>
<path fill="#E2D649" opacity="1.000000" stroke="none" 
	d="
M313.037659,421.978516 
	C313.740509,423.036896 314.388611,424.138885 315.062012,425.577881 
	C315.087280,425.914886 314.909912,426.065399 314.606262,425.941650 
	C313.882263,425.189911 313.461884,424.561951 313.023254,423.961792 
	C313.005005,423.989594 313.071533,423.990753 313.067200,423.674927 
	C313.000946,422.943909 312.938995,422.528748 312.877045,422.113556 
	C312.877045,422.113556 312.982971,422.022125 313.037659,421.978516 
z"/>
<path fill="#E2D649" opacity="1.000000" stroke="none" 
	d="
M308.945221,409.135925 
	C308.516296,408.332367 308.109222,407.096588 307.664795,405.462219 
	C308.074005,406.277008 308.520538,407.490356 308.945221,409.135925 
z"/>
<path fill="#4B450E" opacity="1.000000" stroke="none" 
	d="
M327.490265,189.042572 
	C327.603516,189.723145 327.482788,190.642090 327.034180,191.719330 
	C326.889618,191.012054 327.072968,190.146515 327.490265,189.042572 
z"/>
<path fill="#E2D649" opacity="1.000000" stroke="none" 
	d="
M316.809906,295.111908 
	C316.615021,295.664948 316.085205,296.218689 315.292175,296.894470 
	C315.510956,296.381866 315.992981,295.747253 316.809906,295.111908 
z"/>
<path fill="#D9CD47" opacity="1.000000" stroke="none" 
	d="
M315.265045,226.596680 
	C315.063202,227.294647 314.860443,227.688477 314.421570,228.318542 
	C314.339386,227.524002 314.493256,226.493210 314.995483,225.269470 
	C315.317230,225.481857 315.290680,225.887192 315.265045,226.596680 
z"/>
<path fill="#D9CD47" opacity="1.000000" stroke="none" 
	d="
M327.979980,276.670898 
	C327.926605,276.221924 328.187408,275.717621 328.703003,275.070709 
	C328.736603,275.490601 328.515411,276.053101 327.979980,276.670898 
z"/>
<path fill="#D9CD47" opacity="1.000000" stroke="none" 
	d="
M326.192505,277.896820 
	C326.291321,277.495636 326.716858,277.111847 327.432678,276.688477 
	C327.321716,277.070679 326.920502,277.492432 326.192505,277.896820 
z"/>
<path fill="#E2D649" opacity="1.000000" stroke="none" 
	d="
M318.744873,294.040955 
	C318.594360,294.384644 318.128510,294.735046 317.363953,295.124847 
	C317.519989,294.792053 317.974762,294.419830 318.744873,294.040955 
z"/>
<path fill="#D9CD47" opacity="1.000000" stroke="none" 
	d="
M324.233643,278.945312 
	C324.387726,278.590424 324.859497,278.237549 325.635559,277.858582 
	C325.477020,278.204163 325.014160,278.575745 324.233643,278.945312 
z"/>
<path fill="#E2D649" opacity="1.000000" stroke="none" 
	d="
M321.822998,426.142914 
	C321.657990,426.511261 321.175232,426.850525 320.379028,427.173279 
	C320.545441,426.809113 321.025360,426.461456 321.822998,426.142914 
z"/>
<path fill="#E2D649" opacity="1.000000" stroke="none" 
	d="
M314.102844,376.188965 
	C314.494202,376.287476 314.875305,376.718048 315.331787,377.430847 
	C314.968994,377.315735 314.530762,376.918396 314.102844,376.188965 
z"/>
<path fill="#D9CD47" opacity="1.000000" stroke="none" 
	d="
M323.043579,279.717346 
	C322.994049,279.474518 323.211151,279.217896 323.699951,278.934235 
	C323.751160,279.172638 323.530701,279.438080 323.043579,279.717346 
z"/>
<path fill="#514A13" opacity="1.000000" stroke="none" 
	d="
M182.427185,379.858063 
	C182.427185,379.858063 182.243561,379.715668 181.747345,379.804443 
	C179.167221,380.279724 177.083313,380.666229 174.999405,381.052704 
	C174.999405,381.052704 174.706223,380.891052 174.386719,380.649780 
	C173.720505,380.244629 173.373810,380.080811 173.027100,379.916962 
	C173.027100,379.916962 173.044785,379.988220 173.014420,379.556000 
	C172.619736,376.669189 171.964539,374.217987 171.935791,371.759491 
	C171.625076,345.182861 171.412857,318.605133 171.173737,292.027679 
	C171.173737,292.027679 171.089294,292.099457 171.384583,291.990479 
	C171.914780,291.371033 172.149673,290.860535 172.384567,290.350037 
	C172.384552,290.350037 172.247482,290.377167 172.610275,290.461182 
	C173.606140,290.462494 174.239227,290.379791 174.872299,290.297089 
	C174.872299,290.297089 174.925873,290.214417 175.069000,290.449219 
	C175.797852,290.828735 176.383575,290.973450 176.969284,291.118134 
	C176.969284,291.118134 176.970642,291.033844 177.102112,291.301331 
	C177.863174,292.004578 178.492783,292.440399 178.675690,292.922913 
	C176.635239,293.076080 175.041504,293.182526 173.337296,293.296326 
	C173.177414,294.565521 172.987930,295.368744 172.987839,296.171967 
	C172.985291,320.961884 172.701233,345.757355 173.157913,370.539093 
	C173.348175,380.863403 175.950958,380.139801 182.950485,377.564484 
	C183.877380,377.223419 184.875854,377.076904 185.937256,376.940491 
	C186.033340,377.040710 186.221207,377.245148 186.221207,377.245148 
	C186.221207,377.245148 186.133743,377.630280 185.823532,377.886841 
	C185.303101,378.408630 185.092880,378.673920 184.882660,378.939178 
	C184.882660,378.939178 184.974533,378.949158 184.615189,378.899536 
	C183.646286,379.185974 183.036743,379.522034 182.427185,379.858063 
z"/>
<path fill="#413D0E" opacity="1.000000" stroke="none" 
	d="
M273.035400,221.963608 
	C272.269257,221.975189 271.503113,221.986771 269.985352,222.008301 
	C267.828064,222.231277 266.422455,222.444305 264.549438,222.699310 
	C254.717743,222.724777 245.353470,222.708282 235.745285,222.498779 
	C234.336166,222.456299 233.170929,222.606857 231.539307,222.806992 
	C218.378021,223.456848 205.683167,224.057114 192.988297,224.657379 
	C192.874054,224.490173 192.759827,224.322968 192.375275,223.595871 
	C188.357956,210.472107 184.610931,197.908264 180.909454,184.944214 
	C180.980789,184.010086 181.006577,183.476181 181.292450,183.196182 
	C185.640640,196.519318 189.728729,209.588516 193.796326,222.592239 
	C206.535263,222.041275 218.438126,221.316040 230.350922,221.069061 
	C242.832611,220.810287 255.324081,220.973694 267.810638,221.052658 
	C269.554077,221.063690 271.293915,221.645844 273.035400,221.963608 
z"/>
<path fill="#E5D437" opacity="1.000000" stroke="none" 
	d="
M180.863907,185.344406 
	C184.610931,197.908264 188.357956,210.472107 192.131165,223.415131 
	C191.433807,223.188065 190.335190,222.721298 190.049240,221.952316 
	C188.498337,217.781845 187.148209,213.536713 185.728928,209.317291 
	C185.247787,209.404343 184.766647,209.491409 184.285507,209.578461 
	C184.206848,211.098969 184.128189,212.619492 183.979736,214.602478 
	C183.909958,215.064941 183.737442,215.193573 183.515961,214.906006 
	C180.777969,206.810074 178.261444,199.001709 175.837784,191.118866 
	C175.930634,191.044418 176.113861,190.892471 176.113861,190.892471 
	C177.059021,191.650726 178.004181,192.408981 179.813080,193.860168 
	C179.631042,191.322021 179.739151,189.444901 179.327499,187.689667 
	C177.745560,180.944427 175.952698,174.248596 174.377823,167.501831 
	C174.216766,166.811813 174.989746,165.903778 175.740692,165.089539 
	C176.152084,165.082199 176.249985,165.237991 176.231949,165.622284 
	C177.763916,172.452515 179.313904,178.898453 180.863907,185.344406 
z"/>
<path fill="#D9CD47" opacity="1.000000" stroke="none" 
	d="
M162.573792,190.004852 
	C162.180191,189.860138 162.134171,189.635010 162.049255,189.067200 
	C164.554047,188.641891 167.097717,188.559280 169.830170,189.207870 
	C170.045410,211.624481 170.071854,233.309906 170.039642,255.446655 
	C170.677414,261.620056 171.373840,267.342102 172.070251,273.064148 
	C171.045731,269.495972 169.172577,265.937012 169.133667,262.358124 
	C168.871002,238.188995 168.996674,214.015625 168.996674,188.962601 
	C166.244919,189.398270 164.583145,189.661362 162.573792,190.004852 
z"/>
<path fill="#514A13" opacity="1.000000" stroke="none" 
	d="
M187.069489,377.056885 
	C187.069489,377.056885 186.646729,377.158722 186.433960,377.201935 
	C186.221207,377.245148 186.033340,377.040710 186.006927,376.552582 
	C186.657867,372.667542 187.972458,369.258820 187.909805,365.875610 
	C187.483673,342.867004 186.767365,319.863770 186.366150,296.872986 
	C186.587540,296.887146 187.022537,296.974487 187.022537,296.974487 
	C187.022537,296.974487 187.000000,297.000000 187.135223,297.359131 
	C187.801453,300.140015 188.741592,302.552277 188.798019,304.985016 
	C189.207047,322.621338 189.695160,340.263367 189.588745,357.900146 
	C189.550186,364.290558 187.954605,370.671570 187.069489,377.056885 
z"/>
<path fill="#EAE149" opacity="1.000000" stroke="none" 
	d="
M192.991547,224.881958 
	C205.683167,224.057114 218.378021,223.456848 231.933167,222.890320 
	C233.858688,222.846634 234.923935,222.769226 235.989182,222.691803 
	C245.353470,222.708282 254.717743,222.724777 264.956909,222.808411 
	C267.233521,222.835571 268.635284,222.795593 270.037018,222.755615 
	C278.965973,223.216629 287.894928,223.677658 297.053192,224.508926 
	C276.877747,224.589661 256.470886,223.983841 236.068985,224.119705 
	C222.011566,224.213287 207.960983,225.334045 193.448975,226.000854 
	C192.983276,225.706116 192.984680,225.406311 192.991547,224.881958 
z"/>
<path fill="#4B450E" opacity="1.000000" stroke="none" 
	d="
M187.706268,227.669083 
	C187.706268,227.669083 187.617844,227.783340 187.634506,228.136292 
	C187.725891,228.662567 187.800598,228.835907 187.879211,229.423660 
	C188.462799,233.094131 189.042480,236.350204 189.577545,239.840302 
	C189.535187,240.400726 189.611053,240.709045 189.703094,241.465790 
	C189.655167,253.913162 189.664703,265.894043 189.674225,277.874908 
	C189.674225,277.874908 189.765808,277.945282 189.515686,278.110962 
	C189.073669,279.132812 188.881760,279.988953 188.689880,280.845093 
	C188.689880,280.845093 188.845840,280.894501 188.436676,280.908203 
	C185.358261,280.587921 182.688995,280.253937 180.019745,279.919952 
	C180.019745,279.919952 180.010880,279.990509 179.871780,279.733215 
	C179.108246,279.031830 178.483795,278.587708 178.283234,278.089417 
	C181.255081,278.425354 183.803085,278.815491 186.903442,279.290192 
	C187.219223,278.084259 188.027298,276.529968 187.961166,275.013824 
	C187.303482,259.935577 189.861649,244.726395 186.175644,229.760162 
	C185.973679,228.940155 186.580902,227.920868 187.016296,227.188065 
	C187.382828,227.477554 187.544540,227.573318 187.706268,227.669083 
z"/>
<path fill="#D9CD47" opacity="1.000000" stroke="none" 
	d="
M187.432983,376.973236 
	C187.954605,370.671570 189.550186,364.290558 189.588745,357.900146 
	C189.695160,340.263367 189.207047,322.621338 188.798019,304.985016 
	C188.741592,302.552277 187.801453,300.140015 187.147186,297.347870 
	C188.006668,298.711578 189.805099,300.425812 189.847977,302.182861 
	C190.369736,323.562195 190.783279,344.947662 190.814621,366.332092 
	C190.819778,369.849762 188.852295,373.370361 187.432983,376.973236 
z"/>
<path fill="#E2D649" opacity="1.000000" stroke="none" 
	d="
M170.842133,292.291870 
	C171.412857,318.605133 171.625076,345.182861 171.935791,371.759491 
	C171.964539,374.217987 172.619736,376.669189 173.042435,379.532288 
	C172.082855,376.903595 170.207108,373.873474 170.181824,370.828033 
	C169.967682,345.041687 170.089691,319.252502 170.129532,293.464203 
	C170.130005,293.161285 170.378067,292.858765 170.842133,292.291870 
z"/>
<path fill="#4B450E" opacity="1.000000" stroke="none" 
	d="
M224.007004,404.860748 
	C225.380295,404.959320 226.753571,405.057892 228.526855,405.259827 
	C227.834229,405.581177 226.741623,405.799194 224.838715,406.023254 
	C214.854095,405.510162 205.679749,404.991089 197.206772,404.511719 
	C195.051331,409.981293 193.066498,415.017975 190.982880,419.971527 
	C190.884109,419.888428 190.689804,419.718445 190.689789,419.718445 
	C192.112747,414.096558 193.535706,408.474701 195.423676,402.423340 
	C205.261459,402.949493 214.634232,403.905121 224.007004,404.860748 
z"/>
<path fill="#E2D649" opacity="1.000000" stroke="none" 
	d="
M224.001099,404.651886 
	C214.634232,403.905121 205.261459,402.949493 195.469757,402.035645 
	C195.040558,401.636627 195.030304,401.195770 195.019989,400.425903 
	C204.399658,401.390656 213.779358,402.684387 223.571167,404.001709 
	C223.983276,404.025299 223.995193,404.443024 224.001099,404.651886 
z"/>
<path fill="#D9CD47" opacity="1.000000" stroke="none" 
	d="
M190.040497,277.656097 
	C189.664703,265.894043 189.655167,253.913162 190.006393,241.468201 
	C190.568832,241.008011 190.770523,241.011917 190.972198,241.015823 
	C190.983414,251.551682 191.020004,262.087646 190.978897,272.623322 
	C190.972626,274.228668 190.606476,275.832672 190.040497,277.656097 
z"/>
<path fill="#4B450E" opacity="1.000000" stroke="none" 
	d="
M172.265396,273.246887 
	C171.373840,267.342102 170.677414,261.620056 170.265823,255.451294 
	C170.550659,255.004593 171.003052,255.014038 171.010941,255.437531 
	C171.966461,262.290039 172.914093,268.719086 173.647369,275.102081 
	C173.432999,275.056061 173.013336,274.928894 173.013336,274.928894 
	C172.829071,274.429138 172.644806,273.929382 172.265396,273.246887 
z"/>
<path fill="#4B450E" opacity="1.000000" stroke="none" 
	d="
M186.020691,428.998596 
	C187.439041,426.070404 188.829819,423.142212 190.455200,419.966248 
	C190.689804,419.718445 190.884109,419.888428 190.955597,420.343353 
	C190.267609,423.219055 189.508133,425.639862 188.810532,427.863434 
	C189.862335,428.759949 190.799545,429.558807 191.362762,430.361023 
	C189.326202,429.890869 187.663605,429.417358 186.001022,428.943817 
	C186.001022,428.943817 185.993118,428.998596 186.020691,428.998596 
z"/>
<path fill="#D9CD47" opacity="1.000000" stroke="none" 
	d="
M172.773819,275.144653 
	C173.013336,274.928894 173.432999,275.056061 173.673325,275.080750 
	C173.913651,275.105408 173.866989,275.058167 173.918823,275.334717 
	C174.277237,275.801971 174.583801,275.992676 174.893219,276.116089 
	C174.896103,276.048828 174.832901,276.167755 174.977997,276.452698 
	C176.054581,277.204346 176.986084,277.671051 177.902130,278.121094 
	C177.886658,278.104431 177.859360,278.143585 177.859360,278.143585 
	C178.483795,278.587708 179.108246,279.031830 179.901917,279.714355 
	C177.039764,279.273956 173.157639,279.991333 172.773819,275.144653 
z"/>
<path fill="#D9CD47" opacity="1.000000" stroke="none" 
	d="
M180.158600,280.255066 
	C182.688995,280.253937 185.358261,280.587921 188.438812,280.826416 
	C185.942932,284.105865 183.095535,283.846069 180.158600,280.255066 
z"/>
<path fill="#D9CD47" opacity="1.000000" stroke="none" 
	d="
M189.622162,239.606262 
	C189.042480,236.350204 188.462799,233.094131 188.151917,229.423615 
	C188.602356,229.014114 188.783997,229.019058 188.965637,229.024017 
	C189.326172,231.729416 189.686707,234.434814 189.962311,237.971756 
	C189.792328,239.070969 189.707245,239.338623 189.622162,239.606262 
z"/>
<path fill="#E2D649" opacity="1.000000" stroke="none" 
	d="
M175.262222,381.313110 
	C177.083313,380.666229 179.167221,380.279724 181.651428,379.869995 
	C179.876160,380.422363 177.700607,380.997925 175.262222,381.313110 
z"/>
<path fill="#E5D437" opacity="1.000000" stroke="none" 
	d="
M183.996521,215.001007 
	C184.738190,216.681946 185.393311,218.426834 185.951691,220.638611 
	C185.854950,221.105484 185.630112,221.272278 185.434784,220.976974 
	C184.738785,218.852310 184.238113,217.022934 183.737442,215.193573 
	C183.737442,215.193573 183.909958,215.064941 183.996521,215.001007 
z"/>
<path fill="#E5D437" opacity="1.000000" stroke="none" 
	d="
M185.967499,221.022278 
	C186.711578,222.068588 187.343094,223.198120 187.671722,224.691650 
	C187.171997,225.075333 186.975189,225.095016 186.631775,225.076508 
	C186.485168,225.038300 186.192459,224.959991 186.182648,224.585175 
	C185.991943,223.231003 185.811020,222.251633 185.630096,221.272278 
	C185.630112,221.272278 185.854950,221.105484 185.967499,221.022278 
z"/>
<path fill="#D9CD47" opacity="1.000000" stroke="none" 
	d="
M162.344711,214.715515 
	C162.070557,212.953308 162.044678,210.915070 162.052582,208.441498 
	C162.255234,210.150604 162.424103,212.295029 162.344711,214.715515 
z"/>
<path fill="#D9CD47" opacity="1.000000" stroke="none" 
	d="
M181.169006,292.836792 
	C182.421539,293.286865 183.674057,293.736969 184.963074,294.596893 
	C184.999557,295.006744 184.860855,295.160736 184.548141,295.082336 
	C183.134491,294.365204 182.033554,293.726471 180.990570,293.023926 
	C181.048553,292.960114 181.169006,292.836792 181.169006,292.836792 
z"/>
<path fill="#D9CD47" opacity="1.000000" stroke="none" 
	d="
M179.122375,292.876221 
	C178.492783,292.440399 177.863174,292.004578 177.068726,291.327057 
	C178.234146,291.446625 179.564392,291.807922 181.031830,292.502991 
	C181.169006,292.836792 181.048553,292.960114 180.676346,292.988098 
	C179.886856,292.965424 179.469574,292.914764 179.064392,292.896454 
	C179.076477,292.928833 179.122375,292.876221 179.122375,292.876221 
z"/>
<path fill="#D9CD47" opacity="1.000000" stroke="none" 
	d="
M189.022919,280.705231 
	C188.881760,279.988953 189.073669,279.132812 189.506851,278.053894 
	C189.617416,278.742554 189.486694,279.653961 189.022919,280.705231 
z"/>
<path fill="#D9CD47" opacity="1.000000" stroke="none" 
	d="
M186.981873,296.662598 
	C187.022537,296.974487 186.587540,296.887146 186.356537,296.883484 
	C186.125549,296.879791 186.108429,296.898010 186.021637,296.639221 
	C185.576828,295.973846 185.218842,295.567291 184.860855,295.160736 
	C184.860855,295.160736 184.999557,295.006744 185.070770,294.929077 
	C185.741730,295.351196 186.341476,295.850983 186.981873,296.662598 
z"/>
<path fill="#E5D437" opacity="1.000000" stroke="none" 
	d="
M189.577545,239.840302 
	C189.707245,239.338623 189.792328,239.070969 189.971802,238.392563 
	C190.373795,238.768997 190.681412,239.556168 190.980621,240.679565 
	C190.770523,241.011917 190.568832,241.008011 190.063843,241.001709 
	C189.611053,240.709045 189.535187,240.400726 189.577545,239.840302 
z"/>
<path fill="#D9CD47" opacity="1.000000" stroke="none" 
	d="
M174.749573,289.989960 
	C174.239227,290.379791 173.606140,290.462494 172.662231,290.507904 
	C173.109879,290.208008 173.868362,289.945404 174.749573,289.989960 
z"/>
<path fill="#D9CD47" opacity="1.000000" stroke="none" 
	d="
M162.336121,243.796997 
	C162.093964,243.248688 162.065933,242.500061 162.078232,241.378723 
	C162.262466,241.869568 162.406357,242.733124 162.336121,243.796997 
z"/>
<path fill="#E2D649" opacity="1.000000" stroke="none" 
	d="
M182.800125,379.878510 
	C183.036743,379.522034 183.646286,379.185974 184.613068,378.853394 
	C184.371216,379.204193 183.772141,379.551575 182.800125,379.878510 
z"/>
<path fill="#D9CD47" opacity="1.000000" stroke="none" 
	d="
M176.801544,290.845551 
	C176.383575,290.973450 175.797852,290.828735 175.019775,290.447937 
	C175.429535,290.332214 176.031662,290.452576 176.801544,290.845551 
z"/>
<path fill="#D9CD47" opacity="1.000000" stroke="none" 
	d="
M172.058014,290.382629 
	C172.149673,290.860535 171.914780,291.371033 171.428329,292.024506 
	C171.361664,291.583405 171.546555,290.999298 172.058014,290.382629 
z"/>
<path fill="#D9CD47" opacity="1.000000" stroke="none" 
	d="
M186.778381,225.114716 
	C186.975189,225.095016 187.171997,225.075333 187.664581,225.039520 
	C187.936310,225.613297 187.912292,226.203186 187.797272,227.231079 
	C187.544540,227.573318 187.382828,227.477554 187.021973,226.875259 
	C186.807999,225.950729 186.793182,225.532715 186.778381,225.114716 
z"/>
<path fill="#E2D649" opacity="1.000000" stroke="none" 
	d="
M185.130966,378.865479 
	C185.092880,378.673920 185.303101,378.408630 185.771378,378.077301 
	C185.812714,378.271423 185.595993,378.531616 185.130966,378.865479 
z"/>
<path fill="#E5D437" opacity="1.000000" stroke="none" 
	d="
M188.821472,228.766357 
	C188.783997,229.019058 188.602356,229.014114 188.148010,229.009201 
	C187.800598,228.835907 187.725891,228.662567 187.656677,228.205032 
	C188.000565,228.116791 188.338943,228.312744 188.821472,228.766357 
z"/>
<path fill="#E2D649" opacity="1.000000" stroke="none" 
	d="
M173.163437,380.182465 
	C173.373810,380.080811 173.720505,380.244629 174.219849,380.662872 
	C174.014923,380.760834 173.657349,380.604401 173.163437,380.182465 
z"/>
<path fill="#E5D437" opacity="1.000000" stroke="none" 
	d="
M174.291565,188.544342 
	C172.825943,184.104935 171.360336,179.665527 169.739731,174.756683 
	C168.685394,175.745850 167.920868,176.463120 166.858276,177.301422 
	C167.249939,175.983444 167.939636,174.544449 168.629333,173.105453 
	C169.874268,173.988647 171.851074,174.630676 172.235580,175.797424 
	C173.775421,180.469879 174.821121,185.305176 176.081726,190.486359 
	C176.113861,190.892471 175.930634,191.044418 175.630981,190.892487 
	C174.984756,190.008499 174.638168,189.276413 174.291565,188.544342 
z"/>
<path fill="#E5D437" opacity="1.000000" stroke="none" 
	d="
M162.482330,174.976303 
	C162.148422,174.275375 162.119980,173.494629 162.144196,172.325348 
	C162.393860,172.923370 162.590820,173.909927 162.482330,174.976303 
z"/>
<path fill="#EAE149" opacity="1.000000" stroke="none" 
	d="
M176.738037,163.161926 
	C177.759598,162.983948 178.551437,162.977463 179.571152,163.274689 
	C178.616028,164.131592 177.432999,164.684784 176.249985,165.237991 
	C176.249985,165.237991 176.152084,165.082199 176.092804,165.011566 
	C176.191788,164.405121 176.350037,163.869278 176.738037,163.161926 
z"/>
<path fill="#E5D437" opacity="1.000000" stroke="none" 
	d="
M166.139557,177.426804 
	C166.098404,177.847824 165.770615,178.207245 165.204407,178.650970 
	C165.261642,178.278595 165.557297,177.821899 166.139557,177.426804 
z"/>
<path fill="#EAE35A" opacity="1.000000" stroke="none" 
	d="
M310.182007,72.419189 
	C306.911285,71.078644 303.487000,69.429680 300.017822,67.436264 
	C303.324799,68.764793 306.676605,70.437790 310.182007,72.419189 
z"/>
<path fill="#EAE35A" opacity="1.000000" stroke="none" 
	d="
M296.790100,62.667030 
	C293.681152,61.350094 293.164886,59.111332 295.659485,56.157738 
	C296.261566,58.094479 296.547241,60.185211 296.790100,62.667030 
z"/>
<path fill="#FBEC26" opacity="1.000000" stroke="none" 
	d="
M311.777191,430.483673 
	C312.837311,431.458618 313.897430,432.433563 315.028198,433.781128 
	C314.096069,436.391693 313.093353,438.629639 311.874451,441.126099 
	C310.045807,441.913910 308.433380,442.443237 306.020630,442.986877 
	C298.412018,444.403320 291.587219,445.731049 284.801697,447.235962 
	C280.866058,448.108826 276.993530,449.266541 273.092621,450.296082 
	C273.092621,450.296082 273.053894,450.180023 272.642365,450.116211 
	C261.834747,450.357605 251.438644,450.662811 240.732635,450.696533 
	C236.826431,450.069519 233.192032,449.933441 229.641266,449.316162 
	C220.078842,447.653687 210.552094,445.785919 200.764557,443.742432 
	C198.011444,442.614868 195.432648,441.907532 193.015762,440.835266 
	C189.533234,439.290192 186.855103,437.026428 187.490738,431.718597 
	C190.356094,432.292572 193.102600,432.533325 195.635040,433.399780 
	C213.045609,439.356628 230.901306,442.432434 249.319351,441.938995 
	C257.937347,441.708130 266.619446,441.850067 275.143188,440.786591 
	C281.538635,439.988678 287.727600,437.535797 294.101471,435.735046 
	C294.194427,435.650360 294.446747,435.657440 294.893433,435.755341 
	C299.796875,434.416840 304.253632,432.980438 308.735535,431.553833 
	C308.760742,431.563599 308.791046,431.608368 309.145721,431.727661 
	C310.263275,431.435028 311.026184,431.023071 311.780029,430.579834 
	C311.771027,430.548523 311.777191,430.483673 311.777191,430.483673 
z"/>
<path fill="#EAE149" opacity="1.000000" stroke="none" 
	d="
M201.011185,443.999603 
	C210.552094,445.785919 220.078842,447.653687 229.641266,449.316162 
	C233.192032,449.933441 236.826431,450.069519 240.395615,450.709198 
	C239.294022,451.163269 238.219528,451.333191 237.145020,451.503113 
	C226.042450,449.569916 214.939865,447.636688 203.412033,445.687988 
	C202.986771,445.672546 202.792343,445.681091 202.514816,445.480774 
	C201.827805,445.107727 201.418320,444.935028 201.010468,444.571655 
	C201.012115,444.380981 201.011185,443.999603 201.011185,443.999603 
z"/>
<path fill="#EAE35A" opacity="1.000000" stroke="none" 
	d="
M273.536591,450.312195 
	C276.993530,449.266541 280.866058,448.108826 284.801697,447.235962 
	C291.587219,445.731049 298.412018,444.403320 305.649139,443.020752 
	C295.378815,445.469574 284.679688,447.898926 273.536591,450.312195 
z"/>
<path fill="#EAE35A" opacity="1.000000" stroke="none" 
	d="
M237.587708,451.633636 
	C238.219528,451.333191 239.294022,451.163269 240.705536,450.980682 
	C251.438644,450.662811 261.834747,450.357605 272.703552,450.115997 
	C261.460968,450.707764 249.745682,451.235962 237.587708,451.633636 
z"/>
<path fill="#333332" opacity="1.000000" stroke="none" 
	d="
M186.631775,225.076508 
	C186.793182,225.532715 186.807999,225.950729 186.817139,226.681534 
	C186.580902,227.920868 185.973679,228.940155 186.175644,229.760162 
	C189.861649,244.726395 187.303482,259.935577 187.961166,275.013824 
	C188.027298,276.529968 187.219223,278.084259 186.903442,279.290192 
	C183.803085,278.815491 181.255081,278.425354 178.283234,278.089417 
	C177.859360,278.143585 177.886658,278.104431 177.876373,277.754272 
	C176.855042,276.991974 175.843964,276.579865 174.832901,276.167755 
	C174.832901,276.167755 174.896103,276.048828 174.820312,275.852417 
	C174.452011,275.456696 174.159500,275.257446 173.866989,275.058167 
	C173.866989,275.058167 173.913651,275.105408 173.887695,275.126770 
	C172.914093,268.719086 171.966461,262.290039 171.018494,254.967316 
	C171.019608,235.821167 170.980530,217.568558 171.065628,199.316498 
	C171.078583,196.536667 171.667038,193.759521 171.989288,190.981125 
	C172.490616,191.243774 172.991928,191.506424 173.900391,192.222305 
	C177.540436,202.439224 180.738785,212.214676 184.053467,221.950516 
	C184.433578,223.067017 185.463715,223.962189 186.192459,224.959991 
	C186.192459,224.959991 186.485168,225.038300 186.631775,225.076508 
z"/>
<path fill="#413D0E" opacity="1.000000" stroke="none" 
	d="
M171.759613,190.828217 
	C171.667038,193.759521 171.078583,196.536667 171.065628,199.316498 
	C170.980530,217.568558 171.019608,235.821167 171.010605,254.543823 
	C171.003052,255.014038 170.550659,255.004593 170.324493,254.999954 
	C170.071854,233.309906 170.045410,211.624481 170.069427,189.473663 
	C170.589890,189.563950 171.059906,190.119629 171.759613,190.828217 
z"/>
<path fill="#4B450E" opacity="1.000000" stroke="none" 
	d="
M186.182648,224.585175 
	C185.463715,223.962189 184.433578,223.067017 184.053467,221.950516 
	C180.738785,212.214676 177.540436,202.439224 174.157867,192.341125 
	C174.031906,191.136505 174.055618,190.266266 174.185455,188.970184 
	C174.638168,189.276413 174.984756,190.008499 175.538147,190.966949 
	C178.261444,199.001709 180.777969,206.810074 183.515961,214.906006 
	C184.238113,217.022934 184.738785,218.852310 185.434784,220.976974 
	C185.811020,222.251633 185.991943,223.231003 186.182648,224.585175 
z"/>
<path fill="#413D0E" opacity="1.000000" stroke="none" 
	d="
M331.618073,188.992981 
	C331.573761,214.719025 331.309570,240.432495 330.722290,266.567963 
	C330.399200,266.989960 329.955048,266.989258 329.955017,266.989258 
	C330.297607,244.381943 330.646362,221.774704 330.975525,199.167191 
	C331.021210,196.029816 330.970001,192.891006 330.960724,189.371735 
	C330.957825,188.990616 331.398193,188.980423 331.618073,188.992981 
z"/>
<path fill="#E2D649" opacity="1.000000" stroke="none" 
	d="
M200.764557,443.742432 
	C201.011185,443.999603 201.012115,444.380981 200.641693,444.573639 
	C197.865402,444.165436 195.459503,443.564575 193.053619,442.963715 
	C193.053619,442.963715 193.084488,442.938568 193.096466,442.921997 
	C192.008759,442.280121 190.909073,441.654846 189.499939,440.945923 
	C185.703278,437.877167 185.757645,433.883057 186.023132,429.383148 
	C187.663605,429.417358 189.326202,429.890869 191.377502,430.343384 
	C191.766220,430.322357 191.806839,430.301392 192.046432,430.563354 
	C194.160278,431.287231 196.034531,431.749115 197.941895,432.180908 
	C197.974991,432.150787 197.886963,432.134888 198.124603,432.413025 
	C200.538940,433.218719 202.715652,433.746277 204.914673,434.232147 
	C204.936996,434.190491 204.842453,434.189789 205.108917,434.447754 
	C207.846848,435.272614 210.318298,435.839447 212.826981,436.388977 
	C212.864197,436.371613 212.829208,436.297272 213.083374,436.549133 
	C214.519394,436.969971 215.701233,437.138916 216.912354,437.275543 
	C216.941620,437.243256 216.861710,437.208405 217.131744,437.485382 
	C236.564896,441.546936 255.879379,440.486420 275.159515,439.287628 
	C279.868744,438.994843 284.491730,437.315613 289.142670,436.315521 
	C289.130951,436.357239 289.211121,436.390198 289.613342,436.410522 
	C291.346558,436.227173 292.677551,436.023438 294.008514,435.819733 
	C287.727600,437.535797 281.538635,439.988678 275.143188,440.786591 
	C266.619446,441.850067 257.937347,441.708130 249.319351,441.938995 
	C230.901306,442.432434 213.045609,439.356628 195.635040,433.399780 
	C193.102600,432.533325 190.356094,432.292572 187.490738,431.718597 
	C186.855103,437.026428 189.533234,439.290192 193.015762,440.835266 
	C195.432648,441.907532 198.011444,442.614868 200.764557,443.742432 
z"/>
<path fill="#403719" opacity="1.000000" stroke="none" 
	d="
M193.101318,443.338531 
	C195.459503,443.564575 197.865402,444.165436 200.640060,444.764343 
	C201.418320,444.935028 201.827805,445.107727 202.441376,445.544617 
	C199.479996,445.110321 196.314499,444.411835 193.101318,443.338531 
z"/>
<path fill="#EAE149" opacity="1.000000" stroke="none" 
	d="
M318.822937,161.822464 
	C318.236481,162.061432 317.531982,161.958084 316.458313,161.859863 
	C316.089142,161.864990 316.115356,161.897568 315.872437,161.623566 
	C288.884827,153.173523 261.764130,147.139648 233.627853,151.116791 
	C219.890228,153.058670 206.401779,156.763336 192.792603,159.629654 
	C192.784637,159.589218 192.704285,159.570847 192.323761,159.580826 
	C189.023804,160.458771 186.104355,161.326752 183.113663,162.120087 
	C183.042419,162.045441 182.900146,161.895950 182.900146,161.895950 
	C187.411652,159.972137 191.784348,157.552856 196.467270,156.240875 
	C203.449387,154.284790 210.611511,152.885727 217.765808,151.646667 
	C235.219788,148.623810 252.670868,145.836853 270.429260,149.829224 
	C284.905396,153.083679 299.495331,155.829636 314.003113,158.948532 
	C315.674530,159.307846 317.142578,160.613342 318.822937,161.822464 
z"/>
<path fill="#4B450E" opacity="1.000000" stroke="none" 
	d="
M176.231949,165.622284 
	C177.432999,164.684784 178.616028,164.131592 179.966324,163.289963 
	C180.133606,163.001541 180.551941,162.956009 181.089005,162.977982 
	C182.074509,162.981979 182.522949,162.964005 182.829987,163.267853 
	C177.923141,165.578171 177.720505,169.012543 179.169006,173.398895 
	C180.177277,176.452179 180.437805,179.752365 181.032349,182.942261 
	C181.006577,183.476181 180.980789,184.010086 180.909454,184.944214 
	C179.313904,178.898453 177.763916,172.452515 176.231949,165.622284 
z"/>
<path fill="#EAE149" opacity="1.000000" stroke="none" 
	d="
M182.971390,162.946045 
	C182.522949,162.964005 182.074509,162.981979 181.294342,162.932129 
	C181.424637,162.573868 181.886658,162.283417 182.624420,161.944458 
	C182.900146,161.895950 183.042419,162.045441 183.050476,162.312042 
	C183.058548,162.578659 182.942047,162.965805 182.959564,162.977081 
	C182.977066,162.988358 182.971390,162.946045 182.971390,162.946045 
z"/>
<path fill="#4B450E" opacity="1.000000" stroke="none" 
	d="
M329.692230,267.274536 
	C329.955048,266.989258 330.399200,266.989960 330.621216,266.987000 
	C330.767639,267.961334 330.692047,268.938690 330.572205,270.281494 
	C330.210510,271.357605 329.893066,272.068268 329.337219,272.948395 
	C329.209015,271.265167 329.319214,269.412506 329.692230,267.274536 
z"/>
<path fill="#333333" opacity="1.000000" stroke="none" 
	d="
M181.292465,183.196182 
	C180.437805,179.752365 180.177277,176.452179 179.169006,173.398895 
	C177.720505,169.012543 177.923141,165.578171 182.829987,163.267853 
	C182.971390,162.946045 182.977066,162.988358 183.377365,163.007202 
	C186.753204,161.874298 189.728745,160.722565 192.704285,159.570847 
	C192.704285,159.570847 192.784637,159.589218 193.216858,159.742035 
	C195.597580,159.591339 197.554764,159.334915 199.493164,158.976669 
	C212.015762,156.662262 224.449036,153.214905 237.073273,152.246689 
	C258.001007,150.641632 278.816895,152.677246 299.166321,158.455704 
	C304.695892,160.025909 310.459290,160.772812 316.115356,161.897568 
	C316.115356,161.897568 316.089142,161.864990 316.101318,161.847351 
	C316.894775,162.616058 317.574066,163.928436 318.473969,164.102921 
	C324.071960,165.188202 324.374878,168.514801 323.002075,173.167679 
	C318.188324,189.483337 313.551025,205.851074 308.912018,221.972107 
	C296.771912,221.972107 285.368683,221.972107 273.500427,221.967865 
	C271.293915,221.645844 269.554077,221.063690 267.810638,221.052658 
	C255.324081,220.973694 242.832611,220.810287 230.350922,221.069061 
	C218.438126,221.316040 206.535263,222.041275 193.796326,222.592239 
	C189.728729,209.588516 185.640640,196.519318 181.292465,183.196182 
z"/>
<path fill="#655D22" opacity="1.000000" stroke="none" 
	d="
M270.026672,222.570374 
	C268.635284,222.795593 267.233521,222.835571 265.424316,222.766449 
	C266.422455,222.444305 267.828064,222.231277 269.602905,222.017456 
	C269.972107,222.016663 270.016296,222.385117 270.026672,222.570374 
z"/>
<path fill="#333332" opacity="1.000000" stroke="none" 
	d="
M191.751495,430.339996 
	C190.799545,429.558807 189.862335,428.759949 188.810532,427.863434 
	C189.508133,425.639862 190.267609,423.219055 191.054352,420.426453 
	C193.066498,415.017975 195.051331,409.981293 197.206772,404.511719 
	C205.679749,404.991089 214.854095,405.510162 224.491913,406.032104 
	C226.693604,406.353241 228.430405,406.938477 230.170242,406.947662 
	C244.458649,407.023071 258.757416,407.311737 273.032806,406.874725 
	C281.913452,406.602844 290.777344,405.329956 299.612854,404.220459 
	C304.369995,403.623108 306.036194,404.861572 307.070587,409.760559 
	C307.785675,413.147430 309.313416,416.362732 310.838013,419.752197 
	C311.198029,419.849670 311.162415,419.877472 311.118958,420.190063 
	C311.431671,420.989807 311.787842,421.476959 312.143982,421.964111 
	C312.143982,421.964111 312.052765,421.935577 312.056396,422.215210 
	C312.397186,422.993469 312.734375,423.492096 313.071533,423.990753 
	C313.071533,423.990753 313.005005,423.989594 312.995789,424.359741 
	C311.919830,426.216095 311.054108,427.923615 309.730103,429.126709 
	C308.390411,430.344025 306.597046,431.062103 304.793518,432.136536 
	C304.261322,432.276581 303.938019,432.279022 303.190735,432.203613 
	C300.877686,432.836395 298.988586,433.547058 297.086426,434.210022 
	C297.073334,434.162323 297.168213,434.190277 296.752441,434.118469 
	C293.961487,434.827820 291.586304,435.609009 289.211121,436.390198 
	C289.211121,436.390198 289.130951,436.357239 288.709839,436.222382 
	C272.345673,437.053284 256.412872,438.356293 240.455200,438.840912 
	C232.614456,439.079041 224.727661,437.800568 216.861710,437.208405 
	C216.861710,437.208405 216.941620,437.243256 216.730759,436.939819 
	C215.289673,436.523315 214.059433,436.410309 212.829208,436.297272 
	C212.829208,436.297272 212.864197,436.371613 212.699188,436.023376 
	C209.970276,435.179993 207.406372,434.684875 204.842453,434.189758 
	C204.842453,434.189789 204.936996,434.190491 204.753021,433.886597 
	C202.341690,433.100098 200.114334,432.617493 197.886963,432.134888 
	C197.886963,432.134888 197.974991,432.150787 197.815521,431.814270 
	C195.706314,431.085632 193.756577,430.693512 191.806839,430.301392 
	C191.806839,430.301392 191.766220,430.322357 191.751495,430.339996 
z"/>
<path fill="#655D22" opacity="1.000000" stroke="none" 
	d="
M249.417694,405.821808 
	C249.988251,405.618896 250.860107,405.544647 252.037781,405.618591 
	C251.468719,405.828003 250.593872,405.889252 249.417694,405.821808 
z"/>
<path fill="#413D0E" opacity="1.000000" stroke="none" 
	d="
M305.002441,431.998901 
	C306.597046,431.062103 308.390411,430.344025 309.730103,429.126709 
	C311.054108,427.923615 311.919830,426.216095 313.014038,424.331909 
	C313.461884,424.561951 313.882263,425.189911 314.516479,426.015564 
	C315.745667,428.622314 314.542053,429.661774 312.058777,430.284454 
	C311.777191,430.483673 311.771027,430.548523 311.449158,430.558960 
	C310.348572,430.915710 309.569794,431.262024 308.791046,431.608368 
	C308.791046,431.608368 308.760742,431.563599 308.361694,431.554657 
	C306.975922,431.696777 305.989166,431.847839 305.002441,431.998901 
z"/>
<path fill="#413D0E" opacity="1.000000" stroke="none" 
	d="
M312.128723,421.653625 
	C311.787842,421.476959 311.431671,420.989807 311.100159,420.178284 
	C311.454346,420.350342 311.783905,420.846771 312.128723,421.653625 
z"/>
<path fill="#413D0E" opacity="1.000000" stroke="none" 
	d="
M313.067200,423.674927 
	C312.734375,423.492096 312.397186,422.993469 312.079437,422.173340 
	C312.098846,421.851868 312.492279,421.969910 312.684662,422.041748 
	C312.938995,422.528748 313.000946,422.943909 313.067200,423.674927 
z"/>
<path fill="#333332" opacity="1.000000" stroke="none" 
	d="
M186.135147,296.869293 
	C186.767365,319.863770 187.483673,342.867004 187.909805,365.875610 
	C187.972458,369.258820 186.657867,372.667542 185.910843,376.452362 
	C184.875854,377.076904 183.877380,377.223419 182.950485,377.564484 
	C175.950958,380.139801 173.348175,380.863403 173.157913,370.539093 
	C172.701233,345.757355 172.985291,320.961884 172.987839,296.171967 
	C172.987930,295.368744 173.177414,294.565521 173.337296,293.296326 
	C175.041504,293.182526 176.635239,293.076080 178.675674,292.922913 
	C179.122375,292.876221 179.076477,292.928833 179.189911,293.224243 
	C181.571686,294.645752 183.840057,295.771881 186.108429,296.898010 
	C186.108429,296.898010 186.125549,296.879791 186.135147,296.869293 
z"/>
<path fill="#655D22" opacity="1.000000" stroke="none" 
	d="
M235.745285,222.498779 
	C234.923935,222.769226 233.858688,222.846634 232.399567,222.840729 
	C233.170929,222.606857 234.336166,222.456299 235.745285,222.498779 
z"/>
<path fill="#4B450E" opacity="1.000000" stroke="none" 
	d="
M174.977997,276.452698 
	C175.843964,276.579865 176.855042,276.991974 177.891846,277.770935 
	C176.986084,277.671051 176.054581,277.204346 174.977997,276.452698 
z"/>
<path fill="#4B450E" opacity="1.000000" stroke="none" 
	d="
M173.918823,275.334717 
	C174.159500,275.257446 174.452011,275.456696 174.817429,275.919678 
	C174.583801,275.992676 174.277237,275.801971 173.918823,275.334717 
z"/>
<path fill="#514A13" opacity="1.000000" stroke="none" 
	d="
M186.021637,296.639221 
	C183.840057,295.771881 181.571686,294.645752 179.177811,293.191833 
	C179.469574,292.914764 179.886856,292.965424 180.618378,293.051941 
	C182.033554,293.726471 183.134491,294.365204 184.548141,295.082336 
	C185.218842,295.567291 185.576828,295.973846 186.021637,296.639221 
z"/>
<path fill="#E2D649" opacity="1.000000" stroke="none" 
	d="
M304.793518,432.136536 
	C305.989166,431.847839 306.975922,431.696777 308.336487,431.544861 
	C304.253632,432.980438 299.796875,434.416840 295.154236,435.567139 
	C295.701630,434.917480 296.434906,434.553864 297.168213,434.190277 
	C297.168213,434.190277 297.073334,434.162323 297.470703,434.218353 
	C299.783600,433.610077 301.699158,432.945801 303.614716,432.281494 
	C303.938019,432.279022 304.261322,432.276581 304.793518,432.136536 
z"/>
<path fill="#4B450E" opacity="1.000000" stroke="none" 
	d="
M296.752441,434.118469 
	C296.434906,434.553864 295.701630,434.917480 294.707520,435.469238 
	C294.446747,435.657440 294.194427,435.650360 294.101471,435.735046 
	C292.677551,436.023438 291.346558,436.227173 289.613342,436.410522 
	C291.586304,435.609009 293.961487,434.827820 296.752441,434.118469 
z"/>
<path fill="#E2D649" opacity="1.000000" stroke="none" 
	d="
M309.145721,431.727661 
	C309.569794,431.262024 310.348572,430.915710 311.458191,430.590240 
	C311.026184,431.023071 310.263275,431.435028 309.145721,431.727661 
z"/>
<path fill="#4B450E" opacity="1.000000" stroke="none" 
	d="
M217.131744,437.485382 
	C224.727661,437.800568 232.614456,439.079041 240.455200,438.840912 
	C256.412872,438.356293 272.345673,437.053284 288.721558,436.180664 
	C284.491730,437.315613 279.868744,438.994843 275.159515,439.287628 
	C255.879379,440.486420 236.564896,441.546936 217.131744,437.485382 
z"/>
<path fill="#4B450E" opacity="1.000000" stroke="none" 
	d="
M205.108917,434.447754 
	C207.406372,434.684875 209.970276,435.179993 212.661972,436.040710 
	C210.318298,435.839447 207.846848,435.272614 205.108917,434.447754 
z"/>
<path fill="#4B450E" opacity="1.000000" stroke="none" 
	d="
M198.124603,432.413025 
	C200.114334,432.617493 202.341690,433.100098 204.730713,433.928253 
	C202.715652,433.746277 200.538940,433.218719 198.124603,432.413025 
z"/>
<path fill="#4B450E" opacity="1.000000" stroke="none" 
	d="
M192.046432,430.563354 
	C193.756577,430.693512 195.706314,431.085632 197.782410,431.844360 
	C196.034531,431.749115 194.160278,431.287231 192.046432,430.563354 
z"/>
<path fill="#4B450E" opacity="1.000000" stroke="none" 
	d="
M213.083374,436.549133 
	C214.059433,436.410309 215.289673,436.523315 216.701477,436.972107 
	C215.701233,437.138916 214.519394,436.969971 213.083374,436.549133 
z"/>
<path fill="#4B450E" opacity="1.000000" stroke="none" 
	d="
M315.872437,161.623566 
	C310.459290,160.772812 304.695892,160.025909 299.166321,158.455704 
	C278.816895,152.677246 258.001007,150.641632 237.073273,152.246689 
	C224.449036,153.214905 212.015762,156.662262 199.493164,158.976669 
	C197.554764,159.334915 195.597580,159.591339 193.224823,159.782471 
	C206.401779,156.763336 219.890228,153.058670 233.627853,151.116791 
	C261.764130,147.139648 288.884827,153.173523 315.872437,161.623566 
z"/>
<path fill="#4B450E" opacity="1.000000" stroke="none" 
	d="
M192.323761,159.580826 
	C189.728745,160.722565 186.753204,161.874298 183.359863,162.995911 
	C182.942047,162.965805 183.058548,162.578659 183.121735,162.386688 
	C186.104355,161.326752 189.023804,160.458771 192.323761,159.580826 
z"/>
<path fill="#4B450E" opacity="1.000000" stroke="none" 
	d="
M303.190735,432.203613 
	C301.699158,432.945801 299.783600,433.610077 297.483765,434.266052 
	C298.988586,433.547058 300.877686,432.836395 303.190735,432.203613 
z"/>
</svg>