<?xml version="1.0" encoding="UTF-8"?>
<!DOCTYPE svg PUBLIC "-//W3C//DTD SVG 1.1//EN" "http://www.w3.org/Graphics/SVG/1.1/DTD/svg11.dtd">
<svg xmlns="http://www.w3.org/2000/svg" version="1.1" width="500px" height="500px" style="shape-rendering:geometricPrecision; text-rendering:geometricPrecision; image-rendering:optimizeQuality; fill-rule:evenodd; clip-rule:evenodd" xmlns:xlink="http://www.w3.org/1999/xlink">
<g><path style="opacity:0.805" fill="#88867a" d="M 263.5,45.5 C 263.5,45.8333 263.5,46.1667 263.5,46.5C 250.5,46.5 237.5,46.5 224.5,46.5C 237.327,44.709 250.327,44.3757 263.5,45.5 Z"/></g>
<g><path style="opacity:0.58" fill="#a19f8b" d="M 263.5,46.5 C 263.5,46.1667 263.5,45.8333 263.5,45.5C 270.05,45.4541 276.383,46.1208 282.5,47.5C 276.162,47.2329 269.829,46.8995 263.5,46.5 Z"/></g>
<g><path style="opacity:0.624" fill="#bdbbaf" d="M 220.5,46.5 C 218.833,47.1667 217.167,47.8333 215.5,48.5C 213.5,48.5 211.5,48.5 209.5,48.5C 212.909,47.0966 216.575,46.4299 220.5,46.5 Z"/></g>
<g><path style="opacity:1" fill="#4c461a" d="M 220.5,46.5 C 221.833,46.5 223.167,46.5 224.5,46.5C 237.5,46.5 250.5,46.5 263.5,46.5C 269.829,46.8995 276.162,47.2329 282.5,47.5C 286.952,47.6314 291.286,48.298 295.5,49.5C 294.791,50.404 293.791,50.7373 292.5,50.5C 288.19,49.9198 283.857,49.5865 279.5,49.5C 269.049,47.9423 258.382,47.2756 247.5,47.5C 236.82,47.6113 226.153,47.9447 215.5,48.5C 217.167,47.8333 218.833,47.1667 220.5,46.5 Z"/></g>
<g><path style="opacity:0.875" fill="#6d673a" d="M 209.5,48.5 C 211.5,48.5 213.5,48.5 215.5,48.5C 211.308,49.6085 206.975,50.6085 202.5,51.5C 193.489,52.6798 185.489,56.0132 178.5,61.5C 177.5,62.1667 176.5,62.8333 175.5,63.5C 174.833,63.5 174.5,63.1667 174.5,62.5C 175.911,60.086 177.911,58.4194 180.5,57.5C 182.027,57.573 183.027,56.9063 183.5,55.5C 191.645,51.6284 200.312,49.295 209.5,48.5 Z"/></g>
<g><path style="opacity:1" fill="#e0d643" d="M 279.5,49.5 C 266.501,48.9046 253.501,48.738 240.5,49C 231.193,50.0162 221.86,50.6828 212.5,51C 209.808,51.7433 207.475,52.91 205.5,54.5C 204.833,54.1667 204.167,53.8333 203.5,53.5C 203.167,53.5 202.833,53.5 202.5,53.5C 202.5,52.8333 202.5,52.1667 202.5,51.5C 206.975,50.6085 211.308,49.6085 215.5,48.5C 226.153,47.9447 236.82,47.6113 247.5,47.5C 258.382,47.2756 269.049,47.9423 279.5,49.5 Z"/></g>
<g><path style="opacity:1" fill="#efeb58" d="M 279.5,49.5 C 283.857,49.5865 288.19,49.9198 292.5,50.5C 297.322,51.2174 301.988,52.5507 306.5,54.5C 305.791,55.404 304.791,55.7373 303.5,55.5C 301.104,53.7879 298.438,53.2879 295.5,54C 294.594,55.6995 294.261,57.5328 294.5,59.5C 293.189,57.4402 293.189,55.2735 294.5,53C 290.205,52.0881 285.872,51.4215 281.5,51C 280.584,50.7216 279.918,50.2216 279.5,49.5 Z"/></g>
<g><path style="opacity:1" fill="#e5e167" d="M 202.5,51.5 C 202.5,52.1667 202.5,52.8333 202.5,53.5C 198.438,54.3082 194.771,55.6415 191.5,57.5C 187.167,58.8333 182.833,60.1667 178.5,61.5C 185.489,56.0132 193.489,52.6798 202.5,51.5 Z"/></g>
<g><path style="opacity:0.78" fill="#706b3c" d="M 295.5,49.5 C 304.871,50.7899 313.538,53.9565 321.5,59C 322.71,60.0391 323.71,61.2058 324.5,62.5C 324.5,63.1667 324.167,63.5 323.5,63.5C 323.167,63.5 322.833,63.5 322.5,63.5C 322.167,62.5 321.5,61.8333 320.5,61.5C 316.419,58.1263 311.753,55.793 306.5,54.5C 301.988,52.5507 297.322,51.2174 292.5,50.5C 293.791,50.7373 294.791,50.404 295.5,49.5 Z"/></g>
<g><path style="opacity:0.733" fill="#939285" d="M 183.5,55.5 C 183.027,56.9063 182.027,57.573 180.5,57.5C 180.973,56.0937 181.973,55.427 183.5,55.5 Z"/></g>
<g><path style="opacity:1" fill="#fdfdf5" d="M 202.5,53.5 C 202.833,53.5 203.167,53.5 203.5,53.5C 204.164,59.1405 202.164,63.4738 197.5,66.5C 195.738,66.6427 194.071,66.3094 192.5,65.5C 191.289,66.2739 191.289,67.1072 192.5,68C 189.408,67.8928 187.075,69.0594 185.5,71.5C 182.279,71.8961 179.612,73.2295 177.5,75.5C 177.167,75.5 176.833,75.5 176.5,75.5C 173.789,75.8151 171.456,75.1484 169.5,73.5C 169.5,72.8333 169.5,72.1667 169.5,71.5C 171.263,68.9804 173.263,66.6471 175.5,64.5C 180.417,64.7479 184.75,63.4146 188.5,60.5C 189.772,60.5698 190.938,60.9032 192,61.5C 192.456,60.2559 191.956,59.4226 190.5,59C 191.056,58.6174 191.389,58.1174 191.5,57.5C 194.771,55.6415 198.438,54.3082 202.5,53.5 Z"/></g>
<g><path style="opacity:1" fill="#fcfdf8" d="M 303.5,56.5 C 306.593,58.1093 309.927,59.1093 313.5,59.5C 315.584,62.7058 318.584,64.0391 322.5,63.5C 322.833,63.5 323.167,63.5 323.5,63.5C 325.604,65.3718 326.937,67.7052 327.5,70.5C 327.5,71.8333 327.5,73.1667 327.5,74.5C 323.181,75.2008 319.514,74.0341 316.5,71C 313.522,70.304 310.522,69.804 307.5,69.5C 305.91,67.7662 303.91,66.5995 301.5,66C 297.457,63.035 296.123,59.2017 297.5,54.5C 299.179,56.1045 301.179,56.7711 303.5,56.5 Z"/></g>
<g><path style="opacity:1" fill="#fcfcf" d="M 279.5,49.5 C 279.918,50.2216 280.584,50.7216 281.5,51C 285.872,51.4215 290.205,52.0881 294.5,53C 293.189,55.2735 293.189,57.4402 294.5,59.5C 297.085,65.0831 301.419,68.4164 307.5,69.5C 309.181,71.0075 311.181,72.0075 313.5,72.5C 315.751,73.8175 317.751,75.4842 319.5,77.5C 321.406,102.297 322.739,127.13 323.5,152C 323.167,154.5 322.833,157 322.5,159.5C 315.265,157.519 307.932,156.186 300.5,155.5C 300.167,155.5 299.833,155.5 299.5,155.5C 297.731,153.603 295.398,152.436 292.5,152C 288.514,151.501 284.514,151.334 280.5,151.5C 279.833,151.5 279.167,151.5 278.5,151.5C 278.047,150.542 277.381,149.708 276.5,149C 273.183,148.502 269.85,148.335 266.5,148.5C 266.082,147.778 265.416,147.278 264.5,147C 233.642,145.209 203.975,150.042 175.5,161.5C 175.718,132.721 177.385,104.055 180.5,75.5C 182.988,74.312 185.322,72.9787 187.5,71.5C 190.833,70.1667 194.167,68.8333 197.5,67.5C 202.608,64.7144 205.275,60.3811 205.5,54.5C 207.475,52.91 209.808,51.7433 212.5,51C 221.86,50.6828 231.193,50.0162 240.5,49C 253.501,48.738 266.501,48.9046 279.5,49.5 Z"/></g>
<g><path style="opacity:1" fill="#efe97d" d="M 306.5,54.5 C 311.753,55.793 316.419,58.1263 320.5,61.5C 317.892,61.5997 315.558,60.9331 313.5,59.5C 309.927,59.1093 306.593,58.1093 303.5,56.5C 303.5,56.1667 303.5,55.8333 303.5,55.5C 304.791,55.7373 305.791,55.404 306.5,54.5 Z"/></g>
<g><path style="opacity:1" fill="#fafcdb" d="M 191.5,57.5 C 191.389,58.1174 191.056,58.6174 190.5,59C 191.956,59.4226 192.456,60.2559 192,61.5C 190.938,60.9032 189.772,60.5698 188.5,60.5C 184.75,63.4146 180.417,64.7479 175.5,64.5C 175.5,64.1667 175.5,63.8333 175.5,63.5C 176.5,62.8333 177.5,62.1667 178.5,61.5C 182.833,60.1667 187.167,58.8333 191.5,57.5 Z"/></g>
<g><path style="opacity:1" fill="#fefbcc" d="M 303.5,55.5 C 303.5,55.8333 303.5,56.1667 303.5,56.5C 301.179,56.7711 299.179,56.1045 297.5,54.5C 296.123,59.2017 297.457,63.035 301.5,66C 303.91,66.5995 305.91,67.7662 307.5,69.5C 301.419,68.4164 297.085,65.0831 294.5,59.5C 294.261,57.5328 294.594,55.6995 295.5,54C 298.438,53.2879 301.104,53.7879 303.5,55.5 Z"/></g>
<g><path style="opacity:1" fill="#f9f8bc" d="M 313.5,59.5 C 315.558,60.9331 317.892,61.5997 320.5,61.5C 321.5,61.8333 322.167,62.5 322.5,63.5C 318.584,64.0391 315.584,62.7058 313.5,59.5 Z"/></g>
<g><path style="opacity:1" fill="#fbf79e" d="M 203.5,53.5 C 204.167,53.8333 204.833,54.1667 205.5,54.5C 205.275,60.3811 202.608,64.7144 197.5,67.5C 197.5,67.1667 197.5,66.8333 197.5,66.5C 202.164,63.4738 204.164,59.1405 203.5,53.5 Z"/></g>
<g><path style="opacity:0.678" fill="#c7c4ad" d="M 174.5,62.5 C 174.5,63.1667 174.833,63.5 175.5,63.5C 175.5,63.8333 175.5,64.1667 175.5,64.5C 173.263,66.6471 171.263,68.9804 169.5,71.5C 169.167,71.5 168.833,71.5 168.5,71.5C 169.723,67.9505 171.723,64.9505 174.5,62.5 Z"/></g>
<g><path style="opacity:1" fill="#fffdd9" d="M 197.5,66.5 C 197.5,66.8333 197.5,67.1667 197.5,67.5C 194.167,68.8333 190.833,70.1667 187.5,71.5C 186.833,71.5 186.167,71.5 185.5,71.5C 187.075,69.0594 189.408,67.8928 192.5,68C 191.289,67.1072 191.289,66.2739 192.5,65.5C 194.071,66.3094 195.738,66.6427 197.5,66.5 Z"/></g>
<g><path style="opacity:0.941" fill="#bbba92" d="M 324.5,62.5 C 329.183,67.1707 332.183,72.8373 333.5,79.5C 333.167,79.5 332.833,79.5 332.5,79.5C 332.167,78.8333 331.833,78.1667 331.5,77.5C 331.573,75.9731 330.906,74.9731 329.5,74.5C 329.771,72.6203 329.104,71.287 327.5,70.5C 326.937,67.7052 325.604,65.3718 323.5,63.5C 324.167,63.5 324.5,63.1667 324.5,62.5 Z"/></g>
<g><path style="opacity:1" fill="#fdfbd4" d="M 307.5,69.5 C 310.522,69.804 313.522,70.304 316.5,71C 319.514,74.0341 323.181,75.2008 327.5,74.5C 327.5,73.1667 327.5,71.8333 327.5,70.5C 329.104,71.287 329.771,72.6203 329.5,74.5C 329.03,75.6935 328.03,76.3601 326.5,76.5C 321.865,75.9281 317.531,74.5947 313.5,72.5C 311.181,72.0075 309.181,71.0075 307.5,69.5 Z"/></g>
<g><path style="opacity:1" fill="#f6ef88" d="M 185.5,71.5 C 186.167,71.5 186.833,71.5 187.5,71.5C 185.322,72.9787 182.988,74.312 180.5,75.5C 179.5,75.5 178.5,75.5 177.5,75.5C 179.612,73.2295 182.279,71.8961 185.5,71.5 Z"/></g>
<g><path style="opacity:1" fill="#fcf6a9" d="M 169.5,73.5 C 171.456,75.1484 173.789,75.8151 176.5,75.5C 174.562,77.1628 172.228,77.8294 169.5,77.5C 169.5,76.1667 169.5,74.8333 169.5,73.5 Z"/></g>
<g><path style="opacity:1" fill="#eadf5d" d="M 313.5,72.5 C 317.531,74.5947 321.865,75.9281 326.5,76.5C 328.03,76.3601 329.03,75.6935 329.5,74.5C 330.906,74.9731 331.573,75.9731 331.5,77.5C 327.516,78.7425 323.516,78.7425 319.5,77.5C 317.751,75.4842 315.751,73.8175 313.5,72.5 Z"/></g>
<g><path style="opacity:0.761" fill="#b8ae70" d="M 168.5,71.5 C 168.833,71.5 169.167,71.5 169.5,71.5C 169.5,72.1667 169.5,72.8333 169.5,73.5C 166.683,79.7676 164.016,86.101 161.5,92.5C 162.86,85.0854 165.194,78.0854 168.5,71.5 Z"/></g>
<g><path style="opacity:0.89" fill="#aca461" d="M 333.5,80.5 C 335.898,84.403 337.231,88.7363 337.5,93.5C 337.565,93.9382 337.399,94.2716 337,94.5C 335.515,89.9093 334.349,85.2427 333.5,80.5 Z"/></g>
<g><path style="opacity:1" fill="#eedb23" d="M 319.5,77.5 C 323.516,78.7425 327.516,78.7425 331.5,77.5C 331.833,78.1667 332.167,78.8333 332.5,79.5C 333.688,88.6306 335.522,97.6306 338,106.5C 338.5,124.164 338.667,141.83 338.5,159.5C 338.5,165.5 338.5,171.5 338.5,177.5C 337.5,177.5 336.5,177.5 335.5,177.5C 333.738,176.738 332.738,175.404 332.5,173.5C 332.209,172.351 331.376,171.684 330,171.5C 327.812,171.354 326.479,172.354 326,174.5C 325.501,170.179 325.334,165.846 325.5,161.5C 320.977,160.205 316.31,159.205 311.5,158.5C 308.833,158.167 306.167,157.833 303.5,157.5C 302.5,156.833 301.5,156.167 300.5,155.5C 307.932,156.186 315.265,157.519 322.5,159.5C 322.833,157 323.167,154.5 323.5,152C 322.739,127.13 321.406,102.297 319.5,77.5 Z"/></g>
<g><path style="opacity:1" fill="#eeda25" d="M 169.5,73.5 C 169.5,74.8333 169.5,76.1667 169.5,77.5C 172.228,77.8294 174.562,77.1628 176.5,75.5C 176.833,75.5 177.167,75.5 177.5,75.5C 178.5,75.5 179.5,75.5 180.5,75.5C 177.385,104.055 175.718,132.721 175.5,161.5C 174.926,167.538 174.593,173.705 174.5,180C 174.683,181.684 175.35,181.85 176.5,180.5C 177.058,183.344 177.725,186.178 178.5,189C 178.204,190.888 177.704,192.722 177,194.5C 175.789,190.265 174.289,186.265 172.5,182.5C 172.047,180.435 171.047,178.768 169.5,177.5C 169.688,175.897 169.188,174.563 168,173.5C 166.629,175.041 165.129,176.375 163.5,177.5C 162.5,177.5 161.5,177.5 160.5,177.5C 160.828,165.988 160.495,154.654 159.5,143.5C 159.21,126.787 159.876,110.12 161.5,93.5C 161.5,93.1667 161.5,92.8333 161.5,92.5C 164.016,86.101 166.683,79.7676 169.5,73.5 Z"/></g>
<g><path style="opacity:0.176" fill="#f4eea1" d="M 161.5,93.5 C 159.876,110.12 159.21,126.787 159.5,143.5C 159.5,148.833 159.5,154.167 159.5,159.5C 158.338,142.338 158.171,125.005 159,107.5C 159.354,102.611 160.187,97.944 161.5,93.5 Z"/></g>
<g><path style="opacity:1" fill="#e5d84e" d="M 332.5,79.5 C 332.833,79.5 333.167,79.5 333.5,79.5C 333.5,79.8333 333.5,80.1667 333.5,80.5C 334.349,85.2427 335.515,89.9093 337,94.5C 337.399,94.2716 337.565,93.9382 337.5,93.5C 338.801,97.9426 339.468,102.609 339.5,107.5C 339.83,125.008 339.497,142.341 338.5,159.5C 338.667,141.83 338.5,124.164 338,106.5C 335.522,97.6306 333.688,88.6306 332.5,79.5 Z"/></g>
<g><path style="opacity:1" fill="#dad140" d="M 259.5,148.5 C 261.833,148.5 264.167,148.5 266.5,148.5C 269.85,148.335 273.183,148.502 276.5,149C 277.381,149.708 278.047,150.542 278.5,151.5C 272.019,150.585 265.685,149.585 259.5,148.5 Z"/></g>
<g><path style="opacity:1" fill="#eae144" d="M 266.5,148.5 C 264.167,148.5 261.833,148.5 259.5,148.5C 241.668,147.666 224.335,149.666 207.5,154.5C 206.833,154.5 206.167,154.5 205.5,154.5C 196.041,155.917 187.041,158.584 178.5,162.5C 177.504,162.414 176.671,162.748 176,163.5C 175.643,167.51 175.81,171.51 176.5,175.5C 176.5,177.167 176.5,178.833 176.5,180.5C 175.35,181.85 174.683,181.684 174.5,180C 174.593,173.705 174.926,167.538 175.5,161.5C 203.975,150.042 233.642,145.209 264.5,147C 265.416,147.278 266.082,147.778 266.5,148.5 Z"/></g>
<g><path style="opacity:1" fill="#3f3b0e" d="M 259.5,148.5 C 265.685,149.585 272.019,150.585 278.5,151.5C 279.167,151.5 279.833,151.5 280.5,151.5C 280.5,151.833 280.5,152.167 280.5,152.5C 263.895,150.594 247.228,150.094 230.5,151C 222.984,153.145 215.317,154.312 207.5,154.5C 224.335,149.666 241.668,147.666 259.5,148.5 Z"/></g>
<g><path style="opacity:1" fill="#333332" d="M 280.5,152.5 C 280.833,152.5 281.167,152.5 281.5,152.5C 281.918,153.222 282.584,153.722 283.5,154C 290.189,155.174 296.856,156.341 303.5,157.5C 309.698,160.094 316.031,162.428 322.5,164.5C 322.5,165.5 322.5,166.5 322.5,167.5C 321.325,167.281 320.325,167.614 319.5,168.5C 321.005,169.842 321.672,171.508 321.5,173.5C 320.883,173.611 320.383,173.944 320,174.5C 318.596,181.538 317.096,188.538 315.5,195.5C 315.829,198.228 315.163,200.562 313.5,202.5C 309.675,207.76 307.675,213.76 307.5,220.5C 275.833,220.5 244.167,220.5 212.5,220.5C 205.833,220.5 199.167,220.5 192.5,220.5C 192.002,217.674 190.669,215.34 188.5,213.5C 188.15,208.431 187.317,203.431 186,198.5C 185.148,197.429 184.315,196.429 183.5,195.5C 181.556,185.557 179.222,175.723 176.5,166C 176.978,164.697 177.645,163.531 178.5,162.5C 186.991,159.767 195.658,157.6 204.5,156C 205.056,155.617 205.389,155.117 205.5,154.5C 206.167,154.5 206.833,154.5 207.5,154.5C 215.317,154.312 222.984,153.145 230.5,151C 247.228,150.094 263.895,150.594 280.5,152.5 Z"/></g>
<g><path style="opacity:1" fill="#e6dc45" d="M 280.5,152.5 C 280.5,152.167 280.5,151.833 280.5,151.5C 284.514,151.334 288.514,151.501 292.5,152C 295.398,152.436 297.731,153.603 299.5,155.5C 293.553,154.18 287.553,153.18 281.5,152.5C 281.167,152.5 280.833,152.5 280.5,152.5 Z"/></g>
<g><path style="opacity:1" fill="#41390c" d="M 281.5,152.5 C 287.553,153.18 293.553,154.18 299.5,155.5C 299.833,155.5 300.167,155.5 300.5,155.5C 301.5,156.167 302.5,156.833 303.5,157.5C 296.856,156.341 290.189,155.174 283.5,154C 282.584,153.722 281.918,153.222 281.5,152.5 Z"/></g>
<g><path style="opacity:0.602" fill="#e6dc6e" d="M 159.5,143.5 C 160.495,154.654 160.828,165.988 160.5,177.5C 161.5,177.5 162.5,177.5 163.5,177.5C 162.564,178.974 161.23,179.974 159.5,180.5C 159.5,173.5 159.5,166.5 159.5,159.5C 159.5,154.167 159.5,148.833 159.5,143.5 Z"/></g>
<g><path style="opacity:1" fill="#3d380f" d="M 303.5,157.5 C 306.167,157.833 308.833,158.167 311.5,158.5C 315.261,160.538 319.261,162.204 323.5,163.5C 323.451,167.078 322.785,170.411 321.5,173.5C 321.672,171.508 321.005,169.842 319.5,168.5C 320.325,167.614 321.325,167.281 322.5,167.5C 322.5,166.5 322.5,165.5 322.5,164.5C 316.031,162.428 309.698,160.094 303.5,157.5 Z"/></g>
<g><path style="opacity:1" fill="#4d470f" d="M 205.5,154.5 C 205.389,155.117 205.056,155.617 204.5,156C 195.658,157.6 186.991,159.767 178.5,162.5C 187.041,158.584 196.041,155.917 205.5,154.5 Z"/></g>
<g><path style="opacity:0.606" fill="#ede48c" d="M 339.5,107.5 C 340.336,132.037 340.67,156.703 340.5,181.5C 338.999,180.248 337.332,179.248 335.5,178.5C 335.5,178.167 335.5,177.833 335.5,177.5C 336.5,177.5 337.5,177.5 338.5,177.5C 338.5,171.5 338.5,165.5 338.5,159.5C 339.497,142.341 339.83,125.008 339.5,107.5 Z"/></g>
<g><path style="opacity:1" fill="#ccc243" d="M 323.5,163.5 C 324.156,164.622 324.489,165.955 324.5,167.5C 324.047,171.173 323.547,174.84 323,178.5C 322.33,181.174 321.163,183.507 319.5,185.5C 320.761,181.626 321.428,177.626 321.5,173.5C 322.785,170.411 323.451,167.078 323.5,163.5 Z"/></g>
<g><path style="opacity:1" fill="#e9d834" d="M 311.5,158.5 C 316.31,159.205 320.977,160.205 325.5,161.5C 325.334,165.846 325.501,170.179 326,174.5C 326.479,172.354 327.812,171.354 330,171.5C 331.376,171.684 332.209,172.351 332.5,173.5C 331.504,173.414 330.671,173.748 330,174.5C 327.348,182.774 324.848,191.107 322.5,199.5C 320.935,201.509 319.935,203.843 319.5,206.5C 319.5,206.833 319.5,207.167 319.5,207.5C 317.723,210.505 316.723,213.838 316.5,217.5C 315.566,218.568 315.232,219.901 315.5,221.5C 312.239,226.935 310.739,232.935 311,239.5C 310.078,252.557 310.411,265.557 312,278.5C 317.824,279.171 322.991,277.504 327.5,273.5C 327.762,275.564 328.929,276.897 331,277.5C 331.483,278.448 331.649,279.448 331.5,280.5C 328.821,280.327 326.487,279.327 324.5,277.5C 321.291,279.071 318.124,280.738 315,282.5C 312.973,281.268 311.64,281.602 311,283.5C 310.085,282.672 309.419,281.672 309,280.5C 308.427,261.493 308.594,242.493 309.5,223.5C 309.833,220.833 310.167,218.167 310.5,215.5C 313.241,209.001 315.741,202.335 318,195.5C 318.953,192.568 319.453,189.568 319.5,186.5C 319.5,186.167 319.5,185.833 319.5,185.5C 321.163,183.507 322.33,181.174 323,178.5C 323.547,174.84 324.047,171.173 324.5,167.5C 324.489,165.955 324.156,164.622 323.5,163.5C 319.261,162.204 315.261,160.538 311.5,158.5 Z"/></g>
<g><path style="opacity:1" fill="#9c9132" d="M 169.5,177.5 C 171.047,178.768 172.047,180.435 172.5,182.5C 172.5,183.167 172.5,183.833 172.5,184.5C 171.833,183.833 171.167,183.167 170.5,182.5C 170.371,180.784 170.038,179.117 169.5,177.5 Z"/></g>
<g><path style="opacity:1" fill="#3d370f" d="M 321.5,173.5 C 321.428,177.626 320.761,181.626 319.5,185.5C 319.5,185.833 319.5,186.167 319.5,186.5C 318.167,189.5 316.833,192.5 315.5,195.5C 317.096,188.538 318.596,181.538 320,174.5C 320.383,173.944 320.883,173.611 321.5,173.5 Z"/></g>
<g><path style="opacity:1" fill="#1c1a14" d="M 169.5,177.5 C 170.038,179.117 170.371,180.784 170.5,182.5C 170.843,184.483 170.176,185.817 168.5,186.5C 165.995,185.583 163.662,185.583 161.5,186.5C 159.565,187.15 157.565,187.483 155.5,187.5C 155.062,187.565 154.728,187.399 154.5,187C 155.971,185.417 156.971,183.583 157.5,181.5C 158.167,181.167 158.833,180.833 159.5,180.5C 161.23,179.974 162.564,178.974 163.5,177.5C 165.129,176.375 166.629,175.041 168,173.5C 169.188,174.563 169.688,175.897 169.5,177.5 Z"/></g>
<g><path style="opacity:1" fill="#2d2c29" d="M 335.5,178.5 C 337.332,179.248 338.999,180.248 340.5,181.5C 346.419,183.126 351.753,185.793 356.5,189.5C 355.432,190.434 354.099,190.768 352.5,190.5C 348.193,189.673 343.86,189.007 339.5,188.5C 339.5,187.833 339.167,187.5 338.5,187.5C 338.5,187.167 338.5,186.833 338.5,186.5C 338.611,185.883 338.944,185.383 339.5,185C 336.24,184.216 333.073,184.383 330,185.5C 328.508,180.47 330.341,178.136 335.5,178.5 Z"/></g>
<g><path style="opacity:1" fill="#2d2a10" d="M 332.5,173.5 C 332.738,175.404 333.738,176.738 335.5,177.5C 335.5,177.833 335.5,178.167 335.5,178.5C 330.341,178.136 328.508,180.47 330,185.5C 333.073,184.383 336.24,184.216 339.5,185C 338.944,185.383 338.611,185.883 338.5,186.5C 335.615,186.194 332.948,186.527 330.5,187.5C 329.532,189.607 329.198,191.941 329.5,194.5C 328.686,192.369 328.186,190.036 328,187.5C 326.807,191.839 324.974,195.839 322.5,199.5C 324.848,191.107 327.348,182.774 330,174.5C 330.671,173.748 331.504,173.414 332.5,173.5 Z"/></g>
<g><path style="opacity:1" fill="#363536" d="M 157.5,181.5 C 156.971,183.583 155.971,185.417 154.5,187C 154.728,187.399 155.062,187.565 155.5,187.5C 155.5,187.833 155.5,188.167 155.5,188.5C 152.63,189.634 149.63,190.3 146.5,190.5C 144.901,190.768 143.568,190.434 142.5,189.5C 147.016,186.073 152.016,183.407 157.5,181.5 Z"/></g>
<g><path style="opacity:1" fill="#3e380f" d="M 178.5,162.5 C 177.645,163.531 176.978,164.697 176.5,166C 179.222,175.723 181.556,185.557 183.5,195.5C 180.747,188.975 178.413,182.308 176.5,175.5C 175.81,171.51 175.643,167.51 176,163.5C 176.671,162.748 177.504,162.414 178.5,162.5 Z"/></g>
<g><path style="opacity:0.463" fill="#a2a2a4" d="M 142.5,189.5 C 143.568,190.434 144.901,190.768 146.5,190.5C 144.965,191.788 143.299,191.788 141.5,190.5C 141.624,189.893 141.957,189.56 142.5,189.5 Z"/></g>
<g><path style="opacity:0.418" fill="#969696" d="M 356.5,189.5 C 357.043,189.56 357.376,189.893 357.5,190.5C 355.701,191.788 354.035,191.788 352.5,190.5C 354.099,190.768 355.432,190.434 356.5,189.5 Z"/></g>
<g><path style="opacity:1" fill="#decf40" d="M 176.5,175.5 C 178.413,182.308 180.747,188.975 183.5,195.5C 184.5,200.167 185.5,204.833 186.5,209.5C 183.482,206.588 181.982,202.921 182,198.5C 181.077,197.241 180.243,195.908 179.5,194.5C 179.167,195.5 178.833,196.5 178.5,197.5C 179.38,200.802 180.046,204.135 180.5,207.5C 179.833,206.5 179.167,205.5 178.5,204.5C 176.5,197.833 174.5,191.167 172.5,184.5C 172.5,183.833 172.5,183.167 172.5,182.5C 174.289,186.265 175.789,190.265 177,194.5C 177.704,192.722 178.204,190.888 178.5,189C 177.725,186.178 177.058,183.344 176.5,180.5C 176.5,178.833 176.5,177.167 176.5,175.5 Z"/></g>
<g><path style="opacity:1" fill="#4f4811" d="M 322.5,199.5 C 322.834,202.491 321.834,204.824 319.5,206.5C 319.935,203.843 320.935,201.509 322.5,199.5 Z"/></g>
<g><path style="opacity:1" fill="#3c3915" d="M 183.5,195.5 C 184.315,196.429 185.148,197.429 186,198.5C 187.317,203.431 188.15,208.431 188.5,213.5C 187.833,212.167 187.167,210.833 186.5,209.5C 185.5,204.833 184.5,200.167 183.5,195.5 Z"/></g>
<g><path style="opacity:1" fill="#353521" d="M 170.5,182.5 C 171.167,183.167 171.833,183.833 172.5,184.5C 174.5,191.167 176.5,197.833 178.5,204.5C 178.5,205.5 178.5,206.5 178.5,207.5C 177.034,208.347 176.2,209.68 176,211.5C 175.825,204.314 174.992,197.314 173.5,190.5C 172.5,190.5 171.5,190.5 170.5,190.5C 170.5,214.167 170.5,237.833 170.5,261.5C 169.833,236.833 169.167,212.167 168.5,187.5C 168.5,187.167 168.5,186.833 168.5,186.5C 170.176,185.817 170.843,184.483 170.5,182.5 Z"/></g>
<g><path style="opacity:1" fill="#333332" d="M 178.5,207.5 C 186.243,230.137 188.743,253.47 186,277.5C 185.586,277.957 185.086,278.291 184.5,278.5C 181.979,277.215 179.313,276.548 176.5,276.5C 172.281,272.471 170.281,267.471 170.5,261.5C 170.5,237.833 170.5,214.167 170.5,190.5C 171.5,190.5 172.5,190.5 173.5,190.5C 174.992,197.314 175.825,204.314 176,211.5C 176.2,209.68 177.034,208.347 178.5,207.5 Z"/></g>
<g><path style="opacity:0.357" fill="#f0ea80" d="M 161.5,186.5 C 161.5,186.833 161.5,187.167 161.5,187.5C 160.833,223.5 160.167,259.5 159.5,295.5C 159.5,259.833 159.5,224.167 159.5,188.5C 158.167,188.5 156.833,188.5 155.5,188.5C 155.5,188.167 155.5,187.833 155.5,187.5C 157.565,187.483 159.565,187.15 161.5,186.5 Z"/></g>
<g><path style="opacity:1" fill="#d7cb49" d="M 319.5,186.5 C 319.453,189.568 318.953,192.568 318,195.5C 315.741,202.335 313.241,209.001 310.5,215.5C 311.652,211.225 312.652,206.892 313.5,202.5C 315.163,200.562 315.829,198.228 315.5,195.5C 316.833,192.5 318.167,189.5 319.5,186.5 Z"/></g>
<g><path style="opacity:1" fill="#3c3506" d="M 168.5,187.5 C 169.167,212.167 169.833,236.833 170.5,261.5C 170.281,267.471 172.281,272.471 176.5,276.5C 174.629,276.141 173.129,275.141 172,273.5C 170.692,270.27 169.692,266.936 169,263.5C 168.5,238.169 168.333,212.836 168.5,187.5 Z"/></g>
<g><path style="opacity:1" fill="#4a440b" d="M 319.5,207.5 C 319.976,211.378 318.976,214.712 316.5,217.5C 316.723,213.838 317.723,210.505 319.5,207.5 Z"/></g>
<g><path style="opacity:1" fill="#37340d" d="M 188.5,213.5 C 190.669,215.34 192.002,217.674 192.5,220.5C 199.167,220.5 205.833,220.5 212.5,220.5C 212.5,220.833 212.5,221.167 212.5,221.5C 205.063,221.763 197.73,221.763 190.5,221.5C 190.037,218.779 189.371,216.112 188.5,213.5 Z"/></g>
<g><path style="opacity:1" fill="#ebe14d" d="M 310.5,215.5 C 310.167,218.167 309.833,220.833 309.5,223.5C 308.833,223.5 308.167,223.5 307.5,223.5C 276.838,222.807 246.172,222.474 215.5,222.5C 215.5,222.167 215.5,221.833 215.5,221.5C 246.508,221.338 277.508,221.671 308.5,222.5C 308.41,219.848 309.076,217.515 310.5,215.5 Z"/></g>
<g><path style="opacity:1" fill="#504b13" d="M 313.5,202.5 C 312.652,206.892 311.652,211.225 310.5,215.5C 309.076,217.515 308.41,219.848 308.5,222.5C 277.508,221.671 246.508,221.338 215.5,221.5C 214.5,221.5 213.5,221.5 212.5,221.5C 212.5,221.167 212.5,220.833 212.5,220.5C 244.167,220.5 275.833,220.5 307.5,220.5C 307.675,213.76 309.675,207.76 313.5,202.5 Z"/></g>
<g><path style="opacity:1" fill="#a9a134" d="M 190.5,221.5 C 197.73,221.763 205.063,221.763 212.5,221.5C 213.5,221.5 214.5,221.5 215.5,221.5C 215.5,221.833 215.5,222.167 215.5,222.5C 207.475,222.39 199.475,222.724 191.5,223.5C 190.662,223.158 190.328,222.492 190.5,221.5 Z"/></g>
<g><path style="opacity:1" fill="#fced21" d="M 215.5,222.5 C 246.172,222.474 276.838,222.807 307.5,223.5C 307.539,224.756 307.039,225.756 306,226.5C 302.879,279.138 302.712,331.805 305.5,384.5C 305.449,390.079 304.782,395.412 303.5,400.5C 299.519,401.021 295.519,401.354 291.5,401.5C 264.512,402.395 237.512,402.728 210.5,402.5C 205.1,400.783 199.434,399.783 193.5,399.5C 195.718,345.837 195.885,292.171 194,238.5C 192.553,233.681 191.72,228.681 191.5,223.5C 199.475,222.724 207.475,222.39 215.5,222.5 Z"/></g>
<g><path style="opacity:1" fill="#aea346" d="M 338.5,186.5 C 338.5,186.833 338.5,187.167 338.5,187.5C 338.5,187.833 338.5,188.167 338.5,188.5C 338.167,188.5 337.833,188.5 337.5,188.5C 335.735,187.539 333.735,187.205 331.5,187.5C 331.831,210.339 331.497,233.006 330.5,255.5C 330.5,232.833 330.5,210.167 330.5,187.5C 332.948,186.527 335.615,186.194 338.5,186.5 Z"/></g>
<g><path style="opacity:1" fill="#d5c642" d="M 168.5,186.5 C 168.5,186.833 168.5,187.167 168.5,187.5C 168.333,212.836 168.5,238.169 169,263.5C 169.692,266.936 170.692,270.27 172,273.5C 173.129,275.141 174.629,276.141 176.5,276.5C 176.5,276.833 176.5,277.167 176.5,277.5C 171.937,276.773 169.104,274.107 168,269.5C 167.667,269.833 167.333,270.167 167,270.5C 166.5,242.835 166.333,215.169 166.5,187.5C 164.833,187.5 163.167,187.5 161.5,187.5C 161.5,187.167 161.5,186.833 161.5,186.5C 163.662,185.583 165.995,185.583 168.5,186.5 Z"/></g>
<g><path style="opacity:1" fill="#333232" d="M 329.5,194.5 C 328.74,218.152 328.24,241.819 328,265.5C 327.529,267.246 326.862,268.913 326,270.5C 325.667,270.167 325.333,269.833 325,269.5C 324.506,271.134 324.34,272.801 324.5,274.5C 322.5,274.5 320.5,274.5 318.5,274.5C 318.5,275.5 318.5,276.5 318.5,277.5C 316.5,277.5 314.5,277.5 312.5,277.5C 312.333,261.83 312.5,246.163 313,230.5C 314.43,227.647 315.263,224.647 315.5,221.5C 315.232,219.901 315.566,218.568 316.5,217.5C 318.976,214.712 319.976,211.378 319.5,207.5C 319.5,207.167 319.5,206.833 319.5,206.5C 321.834,204.824 322.834,202.491 322.5,199.5C 324.974,195.839 326.807,191.839 328,187.5C 328.186,190.036 328.686,192.369 329.5,194.5 Z"/></g>
<g><path style="opacity:0.201" fill="#f3ed8a" d="M 338.5,187.5 C 339.167,187.5 339.5,187.833 339.5,188.5C 339.416,246.502 339.083,304.502 338.5,362.5C 337.503,345.341 337.17,328.008 337.5,310.5C 338.345,269.84 338.678,229.173 338.5,188.5C 338.5,188.167 338.5,187.833 338.5,187.5 Z"/></g>
<g><path style="opacity:1" fill="#3f3a15" d="M 330.5,187.5 C 330.5,210.167 330.5,232.833 330.5,255.5C 330.457,261.668 329.457,267.668 327.5,273.5C 322.991,277.504 317.824,279.171 312,278.5C 310.411,265.557 310.078,252.557 311,239.5C 310.739,232.935 312.239,226.935 315.5,221.5C 315.263,224.647 314.43,227.647 313,230.5C 312.5,246.163 312.333,261.83 312.5,277.5C 314.5,277.5 316.5,277.5 318.5,277.5C 318.5,276.5 318.5,275.5 318.5,274.5C 320.5,274.5 322.5,274.5 324.5,274.5C 324.34,272.801 324.506,271.134 325,269.5C 325.333,269.833 325.667,270.167 326,270.5C 326.862,268.913 327.529,267.246 328,265.5C 328.24,241.819 328.74,218.152 329.5,194.5C 329.198,191.941 329.532,189.607 330.5,187.5 Z"/></g>
<g><path style="opacity:1" fill="#ebda3e" d="M 337.5,188.5 C 335.833,188.5 334.167,188.5 332.5,188.5C 332.193,214.852 332.527,241.186 333.5,267.5C 333.167,268.5 332.833,269.5 332.5,270.5C 331.914,270.291 331.414,269.957 331,269.5C 330.502,271.544 329.335,272.878 327.5,273.5C 329.457,267.668 330.457,261.668 330.5,255.5C 331.497,233.006 331.831,210.339 331.5,187.5C 333.735,187.205 335.735,187.539 337.5,188.5 Z"/></g>
<g><path style="opacity:1" fill="#ebd931" d="M 161.5,187.5 C 162.29,231.488 162.79,275.488 163,319.5C 163.171,314.467 163.671,309.467 164.5,304.5C 165.264,310.995 165.931,317.495 166.5,324C 165.051,341.934 163.718,359.767 162.5,377.5C 162.899,391.284 164.232,404.951 166.5,418.5C 167.5,418.5 168.5,418.5 169.5,418.5C 169.192,420.924 169.526,423.257 170.5,425.5C 171.417,424.873 172.417,424.539 173.5,424.5C 172.564,425.974 171.23,426.974 169.5,427.5C 169.167,427.5 168.833,427.5 168.5,427.5C 166.435,422.304 164.768,416.971 163.5,411.5C 163.59,408.848 162.924,406.515 161.5,404.5C 161.911,381.327 161.911,358.327 161.5,335.5C 162.147,322.456 161.48,309.789 159.5,297.5C 159.5,296.833 159.5,296.167 159.5,295.5C 160.167,259.5 160.833,223.5 161.5,187.5 Z"/></g>
<g><path style="opacity:0.212" fill="#f5efa1" d="M 159.5,297.5 C 161.48,309.789 162.147,322.456 161.5,335.5C 161.826,344.017 161.493,352.35 160.5,360.5C 160.821,339.424 160.488,318.424 159.5,297.5 Z"/></g>
<g><path style="opacity:1" fill="#e9db55" d="M 337.5,310.5 C 337.17,328.008 337.503,345.341 338.5,362.5C 339.72,376.676 339.387,390.676 337.5,404.5C 336.833,405.5 336.167,406.5 335.5,407.5C 336.726,388.68 336.726,369.847 335.5,351C 335.906,337.328 336.573,323.828 337.5,310.5 Z"/></g>
<g><path style="opacity:0.839" fill="#e9de6a" d="M 161.5,335.5 C 161.911,358.327 161.911,381.327 161.5,404.5C 161.5,404.833 161.5,405.167 161.5,405.5C 159.872,390.665 159.539,375.665 160.5,360.5C 161.493,352.35 161.826,344.017 161.5,335.5 Z"/></g>
<g><path style="opacity:1" fill="#eeda24" d="M 161.5,187.5 C 163.167,187.5 164.833,187.5 166.5,187.5C 166.333,215.169 166.5,242.835 167,270.5C 167.333,270.167 167.667,269.833 168,269.5C 169.104,274.107 171.937,276.773 176.5,277.5C 176.833,277.5 177.167,277.5 177.5,277.5C 177.577,278.75 178.244,279.583 179.5,280C 182.5,280.667 185.5,280.667 188.5,280C 189.126,279.25 189.626,278.416 190,277.5C 190.885,261.464 190.552,245.464 189,229.5C 188.623,228.058 187.79,227.058 186.5,226.5C 186.167,226.5 185.833,226.5 185.5,226.5C 184.037,220.11 182.37,213.777 180.5,207.5C 180.046,204.135 179.38,200.802 178.5,197.5C 178.833,196.5 179.167,195.5 179.5,194.5C 180.243,195.908 181.077,197.241 182,198.5C 181.982,202.921 183.482,206.588 186.5,209.5C 187.167,210.833 187.833,212.167 188.5,213.5C 189.371,216.112 190.037,218.779 190.5,221.5C 190.328,222.492 190.662,223.158 191.5,223.5C 191.72,228.681 192.553,233.681 194,238.5C 195.885,292.171 195.718,345.837 193.5,399.5C 199.434,399.783 205.1,400.783 210.5,402.5C 204.762,402.377 199.096,401.71 193.5,400.5C 192.094,408.794 189.761,416.794 186.5,424.5C 185.662,424.842 185.328,425.508 185.5,426.5C 183.621,425.659 181.621,425.325 179.5,425.5C 177.621,424.659 175.621,424.325 173.5,424.5C 172.417,424.539 171.417,424.873 170.5,425.5C 169.526,423.257 169.192,420.924 169.5,418.5C 168.5,418.5 167.5,418.5 166.5,418.5C 164.232,404.951 162.899,391.284 162.5,377.5C 163.718,359.767 165.051,341.934 166.5,324C 165.931,317.495 165.264,310.995 164.5,304.5C 163.671,309.467 163.171,314.467 163,319.5C 162.79,275.488 162.29,231.488 161.5,187.5 Z"/></g>
<g><path style="opacity:1" fill="#988f32" d="M 180.5,377.5 C 179.508,379.026 178.008,379.693 176,379.5C 174.615,379.486 173.449,379.152 172.5,378.5C 175.237,378.599 177.904,378.265 180.5,377.5 Z"/></g>
<g><path style="opacity:1" fill="#eadc4a" d="M 174.5,289.5 C 172.856,289.286 171.356,289.62 170,290.5C 169.5,317.498 169.333,344.498 169.5,371.5C 168.336,344.336 168.17,317.003 169,289.5C 170.879,286.934 172.712,286.934 174.5,289.5 Z"/></g>
<g><path style="opacity:1" fill="#514915" d="M 174.5,289.5 C 178.828,291.329 182.828,293.662 186.5,296.5C 188.505,318.734 189.005,341.068 188,363.5C 187.673,367.629 186.84,371.629 185.5,375.5C 184.395,376.6 183.062,377.267 181.5,377.5C 184.031,374.785 185.531,371.452 186,367.5C 186.667,345.167 186.667,322.833 186,300.5C 185.727,298.671 184.893,297.171 183.5,296C 179.759,293.481 175.759,291.647 171.5,290.5C 171.5,318.167 171.5,345.833 171.5,373.5C 170.833,372.833 170.167,372.167 169.5,371.5C 169.333,344.498 169.5,317.498 170,290.5C 171.356,289.62 172.856,289.286 174.5,289.5 Z"/></g>
<g><path style="opacity:1" fill="#e6da43" d="M 186.5,296.5 C 187.75,296.577 188.583,297.244 189,298.5C 189.667,321.5 189.667,344.5 189,367.5C 188.996,370.792 187.83,373.458 185.5,375.5C 186.84,371.629 187.673,367.629 188,363.5C 189.005,341.068 188.505,318.734 186.5,296.5 Z"/></g>
<g><path style="opacity:1" fill="#333331" d="M 181.5,377.5 C 181.167,377.5 180.833,377.5 180.5,377.5C 177.904,378.265 175.237,378.599 172.5,378.5C 171.549,377.081 171.216,375.415 171.5,373.5C 171.5,345.833 171.5,318.167 171.5,290.5C 175.759,291.647 179.759,293.481 183.5,296C 184.893,297.171 185.727,298.671 186,300.5C 186.667,322.833 186.667,345.167 186,367.5C 185.531,371.452 184.031,374.785 181.5,377.5 Z"/></g>
<g><path style="opacity:1" fill="#e4d640" d="M 186.5,226.5 C 187.79,227.058 188.623,228.058 189,229.5C 190.552,245.464 190.885,261.464 190,277.5C 189.626,278.416 189.126,279.25 188.5,280C 185.5,280.667 182.5,280.667 179.5,280C 178.244,279.583 177.577,278.75 177.5,277.5C 180.259,279.293 183.259,279.793 186.5,279C 187.126,278.25 187.626,277.416 188,276.5C 188.745,262.145 188.578,247.812 187.5,233.5C 187.326,231.139 186.993,228.806 186.5,226.5 Z"/></g>
<g><path style="opacity:1" fill="#7c7224" d="M 185.5,226.5 C 185.833,226.5 186.167,226.5 186.5,226.5C 186.993,228.806 187.326,231.139 187.5,233.5C 186.076,231.485 185.41,229.152 185.5,226.5 Z"/></g>
<g><path style="opacity:1" fill="#474013" d="M 178.5,204.5 C 179.167,205.5 179.833,206.5 180.5,207.5C 182.37,213.777 184.037,220.11 185.5,226.5C 185.41,229.152 186.076,231.485 187.5,233.5C 188.578,247.812 188.745,262.145 188,276.5C 187.626,277.416 187.126,278.25 186.5,279C 183.259,279.793 180.259,279.293 177.5,277.5C 177.167,277.5 176.833,277.5 176.5,277.5C 176.5,277.167 176.5,276.833 176.5,276.5C 179.313,276.548 181.979,277.215 184.5,278.5C 185.086,278.291 185.586,277.957 186,277.5C 188.743,253.47 186.243,230.137 178.5,207.5C 178.5,206.5 178.5,205.5 178.5,204.5 Z"/></g>
<g><path style="opacity:1" fill="#eedb25" d="M 337.5,188.5 C 337.833,188.5 338.167,188.5 338.5,188.5C 338.678,229.173 338.345,269.84 337.5,310.5C 336.573,323.828 335.906,337.328 335.5,351C 336.726,369.847 336.726,388.68 335.5,407.5C 335.06,414.483 333.394,421.15 330.5,427.5C 330.167,427.5 329.833,427.5 329.5,427.5C 325.644,422.971 320.977,422.305 315.5,425.5C 313.765,422.14 311.765,419.14 309.5,416.5C 308.637,414.579 307.971,412.579 307.5,410.5C 307.59,407.848 306.924,405.515 305.5,403.5C 305.715,401.821 305.048,400.821 303.5,400.5C 304.782,395.412 305.449,390.079 305.5,384.5C 302.712,331.805 302.879,279.138 306,226.5C 307.039,225.756 307.539,224.756 307.5,223.5C 308.167,223.5 308.833,223.5 309.5,223.5C 308.594,242.493 308.427,261.493 309,280.5C 309.419,281.672 310.085,282.672 311,283.5C 311.64,281.602 312.973,281.268 315,282.5C 318.124,280.738 321.291,279.071 324.5,277.5C 326.487,279.327 328.821,280.327 331.5,280.5C 331.649,279.448 331.483,278.448 331,277.5C 328.929,276.897 327.762,275.564 327.5,273.5C 329.335,272.878 330.502,271.544 331,269.5C 331.414,269.957 331.914,270.291 332.5,270.5C 332.833,269.5 333.167,268.5 333.5,267.5C 332.527,241.186 332.193,214.852 332.5,188.5C 334.167,188.5 335.833,188.5 337.5,188.5 Z"/></g>
<g><path style="opacity:1" fill="#c6b938" d="M 311.5,368.5 C 311.833,368.5 312.167,368.5 312.5,368.5C 312.5,368.833 312.5,369.167 312.5,369.5C 312.394,372.615 313.394,375.281 315.5,377.5C 314.417,377.461 313.417,377.127 312.5,376.5C 311.52,373.914 311.187,371.247 311.5,368.5 Z"/></g>
<g><path style="opacity:1" fill="#574e12" d="M 328.5,351.5 C 328.833,351.5 329.167,351.5 329.5,351.5C 329.867,360.651 329.033,369.651 327,378.5C 326.107,379.081 325.107,379.415 324,379.5C 321.178,378.725 318.344,378.058 315.5,377.5C 313.394,375.281 312.394,372.615 312.5,369.5C 315.115,376.871 319.948,378.871 327,375.5C 327.171,367.323 327.671,359.323 328.5,351.5 Z"/></g>
<g><path style="opacity:1" fill="#333330" d="M 328.5,351.5 C 327.671,359.323 327.171,367.323 327,375.5C 319.948,378.871 315.115,376.871 312.5,369.5C 312.5,369.167 312.5,368.833 312.5,368.5C 312.333,346.831 312.5,325.164 313,303.5C 313.333,301.5 313.667,299.5 314,297.5C 315.376,296.295 316.542,294.962 317.5,293.5C 321.015,292.957 324.348,291.957 327.5,290.5C 328.44,310.811 328.773,331.144 328.5,351.5 Z"/></g>
<g><path style="opacity:1" fill="#e3d33b" d="M 329.5,327.5 C 329.667,315.162 329.5,302.829 329,290.5C 324.443,288.786 320.61,289.786 317.5,293.5C 314.909,294.254 313.076,295.921 312,298.5C 310.792,321.484 310.292,344.484 310.5,367.5C 309.691,365.708 309.191,363.708 309,361.5C 308.683,343.81 308.183,326.31 307.5,309C 309.612,303.745 311.279,298.245 312.5,292.5C 313.264,290.959 315.598,289.792 319.5,289C 322.372,288.685 325.205,288.185 328,287.5C 328.772,287.645 329.439,287.978 330,288.5C 330.827,301.673 330.66,314.673 329.5,327.5 Z"/></g>
<g><path style="opacity:1" fill="#4d4510" d="M 317.5,293.5 C 316.542,294.962 315.376,296.295 314,297.5C 313.667,299.5 313.333,301.5 313,303.5C 312.5,325.164 312.333,346.831 312.5,368.5C 312.167,368.5 311.833,368.5 311.5,368.5C 311.5,367.833 311.167,367.5 310.5,367.5C 310.292,344.484 310.792,321.484 312,298.5C 313.076,295.921 314.909,294.254 317.5,293.5 Z"/></g>
<g><path style="opacity:1" fill="#473f0f" d="M 329.5,327.5 C 329.5,335.5 329.5,343.5 329.5,351.5C 329.167,351.5 328.833,351.5 328.5,351.5C 328.773,331.144 328.44,310.811 327.5,290.5C 324.348,291.957 321.015,292.957 317.5,293.5C 320.61,289.786 324.443,288.786 329,290.5C 329.5,302.829 329.667,315.162 329.5,327.5 Z"/></g>
<g><path style="opacity:1" fill="#f0e84c" d="M 291.5,401.5 C 288.359,402.321 285.025,402.821 281.5,403C 262.17,403.5 242.836,403.667 223.5,403.5C 218.968,403.818 214.634,403.485 210.5,402.5C 237.512,402.728 264.512,402.395 291.5,401.5 Z"/></g>
<g><path style="opacity:1" fill="#534d15" d="M 303.5,400.5 C 305.048,400.821 305.715,401.821 305.5,403.5C 303.874,403.062 302.207,402.728 300.5,402.5C 282.912,404.663 265.245,405.663 247.5,405.5C 239.326,405.5 231.326,405.166 223.5,404.5C 223.5,404.167 223.5,403.833 223.5,403.5C 242.836,403.667 262.17,403.5 281.5,403C 285.025,402.821 288.359,402.321 291.5,401.5C 295.519,401.354 299.519,401.021 303.5,400.5 Z"/></g>
<g><path style="opacity:1" fill="#333332" d="M 223.5,404.5 C 231.326,405.166 239.326,405.5 247.5,405.5C 265.245,405.663 282.912,404.663 300.5,402.5C 302.207,402.728 303.874,403.062 305.5,403.5C 305.5,404.833 305.5,406.167 305.5,407.5C 306.357,410.549 306.357,413.549 305.5,416.5C 306.325,417.386 307.325,417.719 308.5,417.5C 308.014,420.755 309.014,423.422 311.5,425.5C 309.389,426.949 307.056,427.949 304.5,428.5C 303.468,426.96 302.135,426.46 300.5,427C 296.109,429.525 291.776,432.025 287.5,434.5C 275.5,435.983 263.333,436.649 251,436.5C 243.167,436.333 235.333,436.167 227.5,436C 223.101,433.218 218.434,432.718 213.5,434.5C 206.814,431.364 199.814,429.364 192.5,428.5C 189.487,428.419 187.487,427.086 186.5,424.5C 189.222,422.154 191.055,419.154 192,415.5C 193.314,411.246 194.147,406.913 194.5,402.5C 204.089,404.088 213.756,404.755 223.5,404.5 Z"/></g>
<g><path style="opacity:0.596" fill="#999255" d="M 161.5,404.5 C 162.924,406.515 163.59,408.848 163.5,411.5C 162.596,412.209 162.263,413.209 162.5,414.5C 161.523,411.713 161.19,408.713 161.5,405.5C 161.5,405.167 161.5,404.833 161.5,404.5 Z"/></g>
<g><path style="opacity:1" fill="#766d1e" d="M 305.5,403.5 C 306.924,405.515 307.59,407.848 307.5,410.5C 306.833,409.5 306.167,408.5 305.5,407.5C 305.5,406.167 305.5,404.833 305.5,403.5 Z"/></g>
<g><path style="opacity:0.914" fill="#79703f" d="M 337.5,404.5 C 338.106,413.753 335.773,422.086 330.5,429.5C 330.5,428.833 330.5,428.167 330.5,427.5C 333.394,421.15 335.06,414.483 335.5,407.5C 336.167,406.5 336.833,405.5 337.5,404.5 Z"/></g>
<g><path style="opacity:1" fill="#423d12" d="M 210.5,402.5 C 214.634,403.485 218.968,403.818 223.5,403.5C 223.5,403.833 223.5,404.167 223.5,404.5C 213.756,404.755 204.089,404.088 194.5,402.5C 194.147,406.913 193.314,411.246 192,415.5C 191.055,419.154 189.222,422.154 186.5,424.5C 189.761,416.794 192.094,408.794 193.5,400.5C 199.096,401.71 204.762,402.377 210.5,402.5 Z"/></g>
<g><path style="opacity:1" fill="#f4c23f" d="M 309.5,416.5 C 311.765,419.14 313.765,422.14 315.5,425.5C 320.977,422.305 325.644,422.971 329.5,427.5C 327.037,426.767 324.703,425.767 322.5,424.5C 319.966,425.273 317.632,426.273 315.5,427.5C 314.982,430.979 313.982,434.312 312.5,437.5C 313.368,434.327 313.368,431.327 312.5,428.5C 312.804,427.85 313.137,427.183 313.5,426.5C 312.151,423.141 310.818,419.808 309.5,416.5 Z"/></g>
<g><path style="opacity:1" fill="#726638" d="M 163.5,411.5 C 164.768,416.971 166.435,422.304 168.5,427.5C 168.5,428.167 168.5,428.833 168.5,429.5C 165.141,425.106 163.141,420.106 162.5,414.5C 162.263,413.209 162.596,412.209 163.5,411.5 Z"/></g>
<g><path style="opacity:1" fill="#d23f0a" d="M 173.5,424.5 C 175.621,424.325 177.621,424.659 179.5,425.5C 180.833,426.167 182.167,426.833 183.5,427.5C 179.954,426.727 176.454,426.727 173,427.5C 172.5,427.833 172,428.167 171.5,428.5C 172.63,429.622 173.297,430.956 173.5,432.5C 171.413,431.415 170.08,429.749 169.5,427.5C 171.23,426.974 172.564,425.974 173.5,424.5 Z"/></g>
<g><path style="opacity:1" fill="#3a391a" d="M 305.5,407.5 C 306.167,408.5 306.833,409.5 307.5,410.5C 307.971,412.579 308.637,414.579 309.5,416.5C 310.818,419.808 312.151,423.141 313.5,426.5C 313.137,427.183 312.804,427.85 312.5,428.5C 304.302,430.966 295.969,432.966 287.5,434.5C 291.776,432.025 296.109,429.525 300.5,427C 302.135,426.46 303.468,426.96 304.5,428.5C 307.056,427.949 309.389,426.949 311.5,425.5C 309.014,423.422 308.014,420.755 308.5,417.5C 307.325,417.719 306.325,417.386 305.5,416.5C 306.357,413.549 306.357,410.549 305.5,407.5 Z"/></g>
<g><path style="opacity:1" fill="#893e34" d="M 168.5,427.5 C 168.833,427.5 169.167,427.5 169.5,427.5C 170.08,429.749 171.413,431.415 173.5,432.5C 175.36,433.939 177.027,435.605 178.5,437.5C 176.685,436.37 174.685,435.704 172.5,435.5C 170.674,433.853 169.34,431.853 168.5,429.5C 168.5,428.833 168.5,428.167 168.5,427.5 Z"/></g>
<g><path style="opacity:1" fill="#535310" d="M 186.5,424.5 C 187.487,427.086 189.487,428.419 192.5,428.5C 193.5,429.167 194.5,429.833 195.5,430.5C 195.167,430.5 194.833,430.5 194.5,430.5C 191.779,430.037 189.112,429.371 186.5,428.5C 186.167,427.833 185.833,427.167 185.5,426.5C 185.328,425.508 185.662,424.842 186.5,424.5 Z"/></g>
<g><path style="opacity:1" fill="#ea1207" d="M 183.5,427.5 C 184.017,431.709 185.35,435.709 187.5,439.5C 184.5,438.833 181.5,438.167 178.5,437.5C 177.027,435.605 175.36,433.939 173.5,432.5C 173.297,430.956 172.63,429.622 171.5,428.5C 172,428.167 172.5,427.833 173,427.5C 176.454,426.727 179.954,426.727 183.5,427.5 Z"/></g>
<g><path style="opacity:1" fill="#ec1306" d="M 329.5,427.5 C 328.925,429.411 327.925,431.078 326.5,432.5C 323.851,434.14 321.184,435.807 318.5,437.5C 317.5,437.5 316.5,437.5 315.5,437.5C 315.5,434.167 315.5,430.833 315.5,427.5C 317.632,426.273 319.966,425.273 322.5,424.5C 324.703,425.767 327.037,426.767 329.5,427.5 Z"/></g>
<g><path style="opacity:1" fill="#423f19" d="M 192.5,428.5 C 199.814,429.364 206.814,431.364 213.5,434.5C 213.5,434.833 213.5,435.167 213.5,435.5C 207.168,434.752 201.168,433.086 195.5,430.5C 194.5,429.833 193.5,429.167 192.5,428.5 Z"/></g>
<g><path style="opacity:1" fill="#e7dd4b" d="M 194.5,430.5 C 194.833,430.5 195.167,430.5 195.5,430.5C 201.168,433.086 207.168,434.752 213.5,435.5C 213.5,435.833 213.5,436.167 213.5,436.5C 209.036,436.402 204.703,435.569 200.5,434C 198.121,433.284 196.121,432.117 194.5,430.5 Z"/></g>
<g><path style="opacity:1" fill="#f3b841" d="M 179.5,425.5 C 181.621,425.325 183.621,425.659 185.5,426.5C 185.833,427.167 186.167,427.833 186.5,428.5C 185.357,431.068 185.524,433.735 187,436.5C 189.071,438.437 191.238,440.104 193.5,441.5C 192.833,441.5 192.167,441.5 191.5,441.5C 190.329,440.655 188.995,439.989 187.5,439.5C 185.35,435.709 184.017,431.709 183.5,427.5C 182.167,426.833 180.833,426.167 179.5,425.5 Z"/></g>
<g><path style="opacity:1" fill="#8b812d" d="M 213.5,436.5 C 213.5,436.167 213.5,435.833 213.5,435.5C 216.152,435.41 218.485,436.076 220.5,437.5C 218.139,437.326 215.806,436.993 213.5,436.5 Z"/></g>
<g><path style="opacity:1" fill="#3a3619" d="M 287.5,434.5 C 282.492,436.582 277.158,437.749 271.5,438C 255.503,438.5 239.503,438.667 223.5,438.5C 222.791,437.596 221.791,437.263 220.5,437.5C 218.485,436.076 216.152,435.41 213.5,435.5C 213.5,435.167 213.5,434.833 213.5,434.5C 218.434,432.718 223.101,433.218 227.5,436C 235.333,436.167 243.167,436.333 251,436.5C 263.333,436.649 275.5,435.983 287.5,434.5 Z"/></g>
<g><path style="opacity:1" fill="#c22f12" d="M 315.5,427.5 C 315.5,430.833 315.5,434.167 315.5,437.5C 316.5,437.5 317.5,437.5 318.5,437.5C 316.58,438.065 314.913,439.065 313.5,440.5C 311.833,440.5 310.167,440.5 308.5,440.5C 309.795,439.512 311.128,438.512 312.5,437.5C 313.982,434.312 314.982,430.979 315.5,427.5 Z"/></g>
<g><path style="opacity:1" fill="#832121" d="M 326.5,432.5 C 323.764,437.656 319.43,440.322 313.5,440.5C 314.913,439.065 316.58,438.065 318.5,437.5C 321.184,435.807 323.851,434.14 326.5,432.5 Z"/></g>
<g><path style="opacity:1" fill="#7d2816" d="M 178.5,437.5 C 181.5,438.167 184.5,438.833 187.5,439.5C 188.995,439.989 190.329,440.655 191.5,441.5C 188.09,441.543 184.757,441.043 181.5,440C 180.058,439.623 179.058,438.79 178.5,437.5 Z"/></g>
<g><path style="opacity:1" fill="#fced23" d="M 186.5,428.5 C 189.112,429.371 191.779,430.037 194.5,430.5C 196.121,432.117 198.121,433.284 200.5,434C 204.703,435.569 209.036,436.402 213.5,436.5C 215.806,436.993 218.139,437.326 220.5,437.5C 221.791,437.263 222.791,437.596 223.5,438.5C 224.263,439.268 225.263,439.768 226.5,440C 240.5,440.333 254.5,440.667 268.5,441C 272.951,441.13 277.284,441.796 281.5,443C 280.114,444.603 278.281,445.437 276,445.5C 268.674,445.859 261.507,446.692 254.5,448C 245.506,448.5 236.506,448.666 227.5,448.5C 216.946,445.053 205.946,442.72 194.5,441.5C 194.167,441.5 193.833,441.5 193.5,441.5C 191.238,440.104 189.071,438.437 187,436.5C 185.524,433.735 185.357,431.068 186.5,428.5 Z"/></g>
<g><path style="opacity:1" fill="#f5e935" d="M 312.5,428.5 C 313.368,431.327 313.368,434.327 312.5,437.5C 311.128,438.512 309.795,439.512 308.5,440.5C 306.597,440.796 304.93,441.463 303.5,442.5C 289.517,445.828 275.517,448.495 261.5,450.5C 261.167,450.5 260.833,450.5 260.5,450.5C 249.817,450.572 239.15,450.238 228.5,449.5C 228.167,449.5 227.833,449.5 227.5,449.5C 227.5,449.167 227.5,448.833 227.5,448.5C 236.506,448.666 245.506,448.5 254.5,448C 261.507,446.692 268.674,445.859 276,445.5C 278.281,445.437 280.114,444.603 281.5,443C 277.284,441.796 272.951,441.13 268.5,441C 254.5,440.667 240.5,440.333 226.5,440C 225.263,439.768 224.263,439.268 223.5,438.5C 239.503,438.667 255.503,438.5 271.5,438C 277.158,437.749 282.492,436.582 287.5,434.5C 295.969,432.966 304.302,430.966 312.5,428.5 Z"/></g>
<g><path style="opacity:1" fill="#593b33" d="M 329.5,427.5 C 329.833,427.5 330.167,427.5 330.5,427.5C 330.5,428.167 330.5,428.833 330.5,429.5C 328.245,434.757 324.578,438.757 319.5,441.5C 314.137,441.949 308.804,442.616 303.5,443.5C 303.5,443.167 303.5,442.833 303.5,442.5C 304.93,441.463 306.597,440.796 308.5,440.5C 310.167,440.5 311.833,440.5 313.5,440.5C 319.43,440.322 323.764,437.656 326.5,432.5C 327.925,431.078 328.925,429.411 329.5,427.5 Z"/></g>
<g><path style="opacity:1" fill="#efe443" d="M 194.5,441.5 C 205.946,442.72 216.946,445.053 227.5,448.5C 224.098,448.658 220.764,448.324 217.5,447.5C 215.485,446.076 213.152,445.41 210.5,445.5C 205.452,444.813 200.452,443.813 195.5,442.5C 194.833,442.5 194.5,442.167 194.5,441.5 Z"/></g>
<g><path style="opacity:1" fill="#4b4a46" d="M 319.5,441.5 C 305.952,447.614 291.619,450.947 276.5,451.5C 276.5,451.167 276.5,450.833 276.5,450.5C 285.447,448.306 294.447,445.972 303.5,443.5C 308.804,442.616 314.137,441.949 319.5,441.5 Z"/></g>
<g><path style="opacity:1" fill="#b2ac34" d="M 210.5,445.5 C 213.152,445.41 215.485,446.076 217.5,447.5C 214.848,447.59 212.515,446.924 210.5,445.5 Z"/></g>
<g><path style="opacity:1" fill="#45423d" d="M 172.5,435.5 C 174.685,435.704 176.685,436.37 178.5,437.5C 179.058,438.79 180.058,439.623 181.5,440C 184.757,441.043 188.09,441.543 191.5,441.5C 192.167,441.5 192.833,441.5 193.5,441.5C 193.833,441.5 194.167,441.5 194.5,441.5C 194.5,442.167 194.833,442.5 195.5,442.5C 205.485,447.1 216.152,449.434 227.5,449.5C 227.833,449.5 228.167,449.5 228.5,449.5C 228.5,450.167 228.833,450.5 229.5,450.5C 231.5,451.167 233.5,451.833 235.5,452.5C 216.185,452.337 197.518,448.837 179.5,442C 176.669,440.334 174.336,438.168 172.5,435.5 Z"/></g>
<g><path style="opacity:1" fill="#44400c" d="M 195.5,442.5 C 200.452,443.813 205.452,444.813 210.5,445.5C 212.515,446.924 214.848,447.59 217.5,447.5C 220.764,448.324 224.098,448.658 227.5,448.5C 227.5,448.833 227.5,449.167 227.5,449.5C 216.152,449.434 205.485,447.1 195.5,442.5 Z"/></g>
<g><path style="opacity:1" fill="#4c4810" d="M 303.5,442.5 C 303.5,442.833 303.5,443.167 303.5,443.5C 294.447,445.972 285.447,448.306 276.5,450.5C 271.5,450.5 266.5,450.5 261.5,450.5C 275.517,448.495 289.517,445.828 303.5,442.5 Z"/></g>
<g><path style="opacity:1" fill="#777217" d="M 228.5,449.5 C 239.15,450.238 249.817,450.572 260.5,450.5C 250.324,451.652 239.991,451.652 229.5,450.5C 228.833,450.5 228.5,450.167 228.5,449.5 Z"/></g>
<g><path style="opacity:0.835" fill="#4a4732" d="M 229.5,450.5 C 239.991,451.652 250.324,451.652 260.5,450.5C 260.833,450.5 261.167,450.5 261.5,450.5C 266.5,450.5 271.5,450.5 276.5,450.5C 276.5,450.833 276.5,451.167 276.5,451.5C 262.823,453.501 249.157,453.834 235.5,452.5C 233.5,451.833 231.5,451.167 229.5,450.5 Z"/></g>
</svg>
